# Blender v2.90.0 OBJ File: ''
# www.blender.org
o Sphere
v 0.000000 0.555570 0.831470
v 0.000000 0.707107 0.707107
v 0.000000 0.831470 0.555570
v 0.000000 0.923880 0.382683
v 0.000000 0.980785 0.195090
v 0.000000 1.000000 0.000000
v 0.000000 0.980785 -0.195090
v 0.000000 0.555570 -0.831470
v 0.108386 0.544895 0.831470
v 0.137950 0.693520 0.707107
v 0.162212 0.815493 0.555570
v 0.180240 0.906127 0.382683
v 0.191342 0.961940 0.195090
v 0.195090 0.980785 0.000000
v 0.191342 0.961940 -0.195090
v 0.180240 0.906127 -0.382683
v 0.162212 0.815493 -0.555570
v 0.137950 0.693520 -0.707107
v 0.108386 0.544895 -0.831470
v 0.212608 0.513280 0.831470
v 0.270598 0.653281 0.707107
v 0.318190 0.768178 0.555570
v 0.353553 0.853553 0.382683
v 0.375330 0.906127 0.195090
v 0.382684 0.923879 0.000000
v 0.375330 0.906127 -0.195090
v 0.353554 0.853553 -0.382683
v 0.318190 0.768178 -0.555570
v 0.270598 0.653281 -0.707107
v 0.212608 0.513280 -0.831470
v 0.392848 0.587938 0.707107
v 0.461940 0.691342 0.555570
v 0.513280 0.768178 0.382683
v 0.544895 0.815493 0.195090
v 0.555570 0.831469 0.000000
v 0.544895 0.815493 -0.195090
v 0.513280 0.768178 -0.382683
v 0.461940 0.691342 -0.555570
v 0.392848 0.587938 -0.707107
v 0.500000 0.500000 0.707107
v 0.587938 0.587938 0.555570
v 0.653282 0.653281 0.382683
v 0.693520 0.693520 0.195090
v 0.707107 0.707107 0.000000
v 0.693520 0.693520 -0.195090
v 0.653282 0.653281 -0.382683
v 0.587938 0.587938 -0.555570
v 0.500000 0.500000 -0.707107
v 0.768178 0.513280 0.382683
v 0.815493 0.544895 0.195090
v 0.831470 0.555570 0.000000
v 0.815493 0.544895 -0.195090
v 0.768178 0.513280 -0.382683
v -0.768178 0.513280 0.382683
v -0.815493 0.544895 0.195090
v -0.831469 0.555570 0.000000
v -0.815493 0.544895 -0.195090
v -0.768178 0.513280 -0.382683
v -0.500000 0.500000 0.707107
v -0.587937 0.587937 0.555570
v -0.653281 0.653281 0.382683
v -0.693519 0.693519 0.195090
v -0.707106 0.707106 0.000000
v -0.693519 0.693519 -0.195090
v -0.653281 0.653281 -0.382683
v -0.587937 0.587937 -0.555570
v -0.500000 0.500000 -0.707107
v -0.392847 0.587937 0.707107
v -0.461939 0.691341 0.555570
v -0.513280 0.768177 0.382683
v -0.544895 0.815492 0.195090
v -0.555570 0.831469 0.000000
v -0.544895 0.815492 -0.195090
v -0.513280 0.768177 -0.382683
v -0.461939 0.691341 -0.555570
v -0.392847 0.587937 -0.707107
v -0.212607 0.513280 0.831470
v -0.270598 0.653281 0.707107
v -0.318189 0.768177 0.555570
v -0.353553 0.853553 0.382683
v -0.375330 0.906127 0.195090
v -0.382683 0.923879 0.000000
v -0.375330 0.906127 -0.195090
v -0.353553 0.853553 -0.382683
v -0.318189 0.768177 -0.555570
v -0.270598 0.653281 -0.707107
v -0.212607 0.513279 -0.831470
v -0.108386 0.544895 0.831470
v -0.137950 0.693520 0.707107
v -0.162211 0.815492 0.555570
v -0.180240 0.906127 0.382683
v -0.191341 0.961939 0.195090
v -0.195090 0.980785 0.000000
v -0.191341 0.961939 -0.195090
v -0.180240 0.906127 -0.382683
v -0.162211 0.815492 -0.555570
v -0.137950 0.693520 -0.707107
v -0.108386 0.544895 -0.831470
v 0.000000 0.923879 -0.382683
v 0.000000 0.831469 -0.555570
v 0.000000 0.707106 -0.707107
v 0.679673 0.476158 0.555570
v 0.712621 0.476158 0.507691
v 0.712621 0.476158 -0.507691
v 0.679673 0.476158 -0.555570
v 0.519567 0.476158 -0.707107
v 0.282058 0.476158 -0.831470
v -0.318159 0.476158 -0.817436
v -0.282057 0.476158 -0.831470
v -0.476158 0.476158 -0.734778
v 0.476158 0.476158 -0.734778
v 0.318159 0.476158 -0.817436
v 0.000000 0.476158 -0.873916
v 0.788020 0.476158 0.382683
v 0.873917 0.476158 0.000000
v 0.852234 0.476158 0.195090
v 0.852234 0.476158 -0.195090
v 0.788020 0.476158 -0.382683
v -0.519566 0.476158 -0.707107
v 0.197231 0.476158 -0.852947
v 0.094714 0.476158 -0.868930
v -0.094714 0.476158 -0.868930
v -0.197231 0.476158 -0.852946
v 0.318159 0.476158 0.817436
v 0.282058 0.476158 0.831470
v 0.094714 0.476158 0.868930
v 0.000000 0.476158 0.873916
v -0.318159 0.476158 0.817436
v -0.282057 0.476158 0.831470
v -0.476158 0.476158 0.734778
v -0.679672 0.476158 0.555570
v -0.712621 0.476158 0.507690
v -0.712621 0.476158 -0.507690
v -0.679672 0.476158 -0.555570
v 0.197231 0.476158 0.852947
v -0.094714 0.476158 0.868930
v -0.197231 0.476158 0.852946
v 0.519567 0.476158 0.707107
v 0.476158 0.476158 0.734778
v -0.519566 0.476158 0.707107
v -0.788020 0.476158 0.382683
v -0.852233 0.476158 0.195090
v -0.873916 0.476158 0.000000
v -0.788020 0.476158 -0.382683
v -0.852233 0.476158 -0.195090
vn 0.0975 0.9904 0.0975
vn 0.0975 0.9904 -0.0975
vn 0.0938 0.9527 -0.2890
vn 0.0464 0.4709 0.8810
vn 0.0865 0.8786 -0.4696
vn 0.0624 0.6332 0.7715
vn 0.0759 0.7708 -0.6326
vn 0.0759 0.7708 0.6326
vn 0.0624 0.6332 -0.7715
vn 0.0865 0.8786 0.4696
vn 0.0938 0.9527 0.2890
vn 0.2779 0.9161 0.2890
vn 0.2889 0.9524 0.0975
vn 0.2889 0.9524 -0.0975
vn 0.2779 0.9161 -0.2890
vn 0.1374 0.4528 0.8810
vn 0.2563 0.8448 -0.4696
vn 0.1847 0.6088 0.7715
vn 0.2248 0.7412 -0.6326
vn 0.2248 0.7412 0.6326
vn 0.1847 0.6088 -0.7715
vn 0.2563 0.8448 0.4696
vn 0.4162 0.7786 -0.4696
vn 0.2999 0.5611 0.7715
vn 0.3651 0.6831 -0.6326
vn 0.3651 0.6831 0.6326
vn 0.2999 0.5611 -0.7715
vn 0.4162 0.7786 0.4696
vn 0.4513 0.8443 0.2890
vn 0.4691 0.8777 0.0975
vn 0.4691 0.8777 -0.0975
vn 0.4513 0.8443 -0.2890
vn 0.2231 0.4173 0.8810
vn 0.6314 0.7693 0.0976
vn 0.6314 0.7693 -0.0976
vn 0.6073 0.7400 -0.2890
vn 0.5601 0.6825 -0.4696
vn 0.4036 0.4918 0.7715
vn 0.4913 0.5987 -0.6326
vn 0.4913 0.5987 0.6326
vn 0.5601 0.6825 0.4696
vn 0.6073 0.7400 0.2890
vn 0.4918 0.4036 0.7715
vn 0.5987 0.4913 -0.6326
vn 0.5987 0.4913 0.6326
vn 0.6825 0.5601 0.4696
vn 0.7400 0.6073 0.2890
vn 0.7693 0.6314 0.0976
vn 0.7693 0.6314 -0.0976
vn 0.7400 0.6073 -0.2890
vn 0.6825 0.5601 -0.4696
vn 0.8777 0.4691 0.0976
vn 0.8777 0.4691 -0.0976
vn 0.8443 0.4513 -0.2890
vn 0.7786 0.4162 0.4696
vn 0.8443 0.4513 0.2890
vn -0.7400 0.6073 0.2890
vn -0.7693 0.6314 0.0976
vn -0.7693 0.6314 -0.0976
vn -0.7400 0.6073 -0.2890
vn -0.6825 0.5601 0.4696
vn -0.5601 0.6825 -0.4696
vn -0.4036 0.4918 0.7715
vn -0.4913 0.5987 -0.6326
vn -0.4913 0.5987 0.6326
vn -0.5601 0.6825 0.4696
vn -0.6073 0.7400 0.2890
vn -0.6314 0.7693 0.0976
vn -0.6314 0.7693 -0.0976
vn -0.6073 0.7400 -0.2890
vn -0.4691 0.8777 0.0976
vn -0.4691 0.8777 -0.0976
vn -0.4513 0.8443 -0.2890
vn -0.4162 0.7786 -0.4696
vn -0.2999 0.5611 0.7715
vn -0.3651 0.6831 -0.6326
vn -0.3651 0.6831 0.6326
vn -0.4162 0.7786 0.4696
vn -0.4513 0.8443 0.2890
vn -0.2248 0.7412 -0.6326
vn -0.2248 0.7412 0.6326
vn -0.1847 0.6088 -0.7715
vn -0.2563 0.8448 0.4696
vn -0.2779 0.9161 0.2890
vn -0.2889 0.9524 0.0976
vn -0.2889 0.9524 -0.0976
vn -0.2779 0.9161 -0.2890
vn -0.1374 0.4528 0.8810
vn -0.2563 0.8448 -0.4696
vn -0.1847 0.6088 0.7715
vn -0.0976 0.9904 -0.0975
vn -0.0938 0.9527 -0.2890
vn -0.0464 0.4709 0.8810
vn -0.0865 0.8786 -0.4696
vn -0.0624 0.6332 0.7715
vn -0.0759 0.7708 -0.6326
vn -0.0759 0.7708 0.6326
vn -0.0624 0.6332 -0.7715
vn -0.0865 0.8786 0.4696
vn -0.0938 0.9527 0.2890
vn -0.0976 0.9904 0.0975
vn -0.2231 0.4173 0.8810
vn -0.2999 0.5611 -0.7715
vn -0.4918 0.4036 -0.7715
vn -0.8777 0.4691 0.0976
vn -0.7786 0.4162 -0.4696
vn -0.0464 0.4709 -0.8810
vn -0.8443 0.4513 0.2890
vn 0.4918 0.4036 -0.7715
vn -0.2231 0.4173 -0.8810
vn -0.5987 0.4913 -0.6326
vn 0.7786 0.4162 -0.4696
vn -0.4036 0.4918 -0.7715
vn -0.7786 0.4162 0.4696
vn -0.8777 0.4691 -0.0976
vn 0.0464 0.4709 -0.8810
vn -0.5987 0.4913 0.6326
vn -0.6825 0.5601 -0.4696
vn 0.2230 0.4173 -0.8810
vn 0.1374 0.4528 -0.8810
vn 0.4036 0.4918 -0.7715
vn -0.4918 0.4036 0.7715
vn -0.1374 0.4528 -0.8810
vn -0.8443 0.4513 -0.2890
f 6//1 5//1 13//1 14//1
f 7//2 6//2 14//2 15//2
f 99//3 7//3 15//3 16//3
f 1//4 127//4 126//4 9//4
f 100//5 99//5 16//5 17//5
f 2//6 1//6 9//6 10//6
f 101//7 100//7 17//7 18//7
f 3//8 2//8 10//8 11//8
f 8//9 101//9 18//9 19//9
f 4//10 3//10 11//10 12//10
f 5//11 4//11 12//11 13//11
f 13//12 12//12 23//12 24//12
f 14//13 13//13 24//13 25//13
f 15//14 14//14 25//14 26//14
f 16//15 15//15 26//15 27//15
f 9//16 126//16 135//16 20//16
f 17//17 16//17 27//17 28//17
f 10//18 9//18 20//18 21//18
f 18//19 17//19 28//19 29//19
f 11//20 10//20 21//20 22//20
f 19//21 18//21 29//21 30//21
f 12//22 11//22 22//22 23//22
f 28//23 27//23 37//23 38//23
f 21//24 20//24 125//24 124//24 31//24
f 29//25 28//25 38//25 39//25
f 22//26 21//26 31//26 32//26
f 30//27 29//27 39//27 112//27 107//27
f 23//28 22//28 32//28 33//28
f 24//29 23//29 33//29 34//29
f 25//30 24//30 34//30 35//30
f 26//31 25//31 35//31 36//31
f 27//32 26//32 36//32 37//32
f 20//33 135//33 125//33
f 35//34 34//34 43//34 44//34
f 36//35 35//35 44//35 45//35
f 37//36 36//36 45//36 46//36
f 38//37 37//37 46//37 47//37
f 31//38 124//38 139//38 40//38
f 39//39 38//39 47//39 48//39
f 32//40 31//40 40//40 41//40
f 33//41 32//41 41//41 42//41
f 34//42 33//42 42//42 43//42
f 40//43 139//43 138//43
f 48//44 47//44 105//44 106//44
f 41//45 40//45 138//45 102//45
f 42//46 41//46 102//46 103//46 49//46
f 43//47 42//47 49//47 50//47
f 44//48 43//48 50//48 51//48
f 45//49 44//49 51//49 52//49
f 46//50 45//50 52//50 53//50
f 47//51 46//51 53//51 104//51 105//51
f 51//52 50//52 116//52 115//52
f 52//53 51//53 115//53 117//53
f 53//54 52//54 117//54 118//54
f 49//55 103//55 114//55
f 50//56 49//56 114//56 116//56
f 55//57 54//57 61//57 62//57
f 56//58 55//58 62//58 63//58
f 57//59 56//59 63//59 64//59
f 58//60 57//60 64//60 65//60
f 54//61 132//61 131//61 60//61 61//61
f 66//62 65//62 74//62 75//62
f 59//63 130//63 128//63 68//63
f 67//64 66//64 75//64 76//64
f 60//65 59//65 68//65 69//65
f 61//66 60//66 69//66 70//66
f 62//67 61//67 70//67 71//67
f 63//68 62//68 71//68 72//68
f 64//69 63//69 72//69 73//69
f 65//70 64//70 73//70 74//70
f 72//71 71//71 81//71 82//71
f 73//72 72//72 82//72 83//72
f 74//73 73//73 83//73 84//73
f 75//74 74//74 84//74 85//74
f 68//75 128//75 129//75 77//75 78//75
f 76//76 75//76 85//76 86//76
f 69//77 68//77 78//77 79//77
f 70//78 69//78 79//78 80//78
f 71//79 70//79 80//79 81//79
f 86//80 85//80 96//80 97//80
f 79//81 78//81 89//81 90//81
f 87//82 86//82 97//82 98//82
f 80//83 79//83 90//83 91//83
f 81//84 80//84 91//84 92//84
f 82//85 81//85 92//85 93//85
f 83//86 82//86 93//86 94//86
f 84//87 83//87 94//87 95//87
f 77//88 137//88 136//88 88//88
f 85//89 84//89 95//89 96//89
f 78//90 77//90 88//90 89//90
f 94//91 93//91 6//91 7//91
f 95//92 94//92 7//92 99//92
f 88//93 136//93 127//93 1//93
f 96//94 95//94 99//94 100//94
f 89//95 88//95 1//95 2//95
f 97//96 96//96 100//96 101//96
f 90//97 89//97 2//97 3//97
f 98//98 97//98 101//98 8//98
f 91//99 90//99 3//99 4//99
f 92//100 91//100 4//100 5//100
f 93//101 92//101 5//101 6//101
f 129//102 137//102 77//102
f 109//103 108//103 76//103 86//103 87//103
f 110//104 119//104 67//104
f 143//105 142//105 55//105 56//105
f 133//106 144//106 58//106
f 113//107 122//107 98//107 8//107
f 142//108 141//108 54//108 55//108
f 106//109 111//109 48//109
f 123//110 109//110 87//110
f 119//111 134//111 66//111 67//111
f 118//112 104//112 53//112
f 108//113 110//113 67//113 76//113
f 141//114 132//114 54//114
f 145//115 143//115 56//115 57//115
f 121//116 113//116 8//116 19//116
f 131//117 140//117 59//117 60//117
f 134//118 133//118 58//118 65//118 66//118
f 107//119 120//119 30//119
f 120//120 121//120 19//120 30//120
f 111//121 112//121 39//121 48//121
f 140//122 130//122 59//122
f 122//123 123//123 87//123 98//123
f 144//124 145//124 57//124 58//124
