ply
format ascii 1.0
element vertex 145
property float x
property float y
property float z
element face 244
property list uchar uint vertex_indices
element cornerrectangle 1
property uint rightup
property uint leftup
property uint leftdown
property uint rightdown
property list uchar uchar vertexlist
property uint ulength
property uint vlength
property uchar numbercoordinates
property list uint float datamatrix
end_header
0.000000e+00 5.555700e-01 8.314700e-01
0.000000e+00 7.071070e-01 7.071070e-01
0.000000e+00 8.314700e-01 5.555700e-01
0.000000e+00 9.238800e-01 3.826830e-01
0.000000e+00 9.807850e-01 1.950900e-01
0.000000e+00 1.000000e+00 0.000000e+00
0.000000e+00 9.807850e-01 -1.950900e-01
0.000000e+00 5.555700e-01 -8.314700e-01
1.083860e-01 5.448950e-01 8.314700e-01
1.379500e-01 6.935200e-01 7.071070e-01
1.622120e-01 8.154930e-01 5.555700e-01
1.802400e-01 9.061270e-01 3.826830e-01
1.913420e-01 9.619400e-01 1.950900e-01
1.950900e-01 9.807850e-01 0.000000e+00
1.913420e-01 9.619400e-01 -1.950900e-01
1.802400e-01 9.061270e-01 -3.826830e-01
1.622120e-01 8.154930e-01 -5.555700e-01
1.379500e-01 6.935200e-01 -7.071070e-01
1.083860e-01 5.448950e-01 -8.314700e-01
2.126080e-01 5.132800e-01 8.314700e-01
2.705980e-01 6.532810e-01 7.071070e-01
3.181900e-01 7.681780e-01 5.555700e-01
3.535530e-01 8.535530e-01 3.826830e-01
3.753300e-01 9.061270e-01 1.950900e-01
3.826840e-01 9.238790e-01 0.000000e+00
3.753300e-01 9.061270e-01 -1.950900e-01
3.535540e-01 8.535530e-01 -3.826830e-01
3.181900e-01 7.681780e-01 -5.555700e-01
2.705980e-01 6.532810e-01 -7.071070e-01
2.126080e-01 5.132800e-01 -8.314700e-01
3.928480e-01 5.879380e-01 7.071070e-01
4.619400e-01 6.913420e-01 5.555700e-01
5.132800e-01 7.681780e-01 3.826830e-01
5.448950e-01 8.154930e-01 1.950900e-01
5.555700e-01 8.314690e-01 0.000000e+00
5.448950e-01 8.154930e-01 -1.950900e-01
5.132800e-01 7.681780e-01 -3.826830e-01
4.619400e-01 6.913420e-01 -5.555700e-01
3.928480e-01 5.879380e-01 -7.071070e-01
5.000000e-01 5.000000e-01 7.071070e-01
5.879380e-01 5.879380e-01 5.555700e-01
6.532820e-01 6.532810e-01 3.826830e-01
6.935200e-01 6.935200e-01 1.950900e-01
7.071070e-01 7.071070e-01 0.000000e+00
6.935200e-01 6.935200e-01 -1.950900e-01
6.532820e-01 6.532810e-01 -3.826830e-01
5.879380e-01 5.879380e-01 -5.555700e-01
5.000000e-01 5.000000e-01 -7.071070e-01
7.681780e-01 5.132800e-01 3.826830e-01
8.154930e-01 5.448950e-01 1.950900e-01
8.314700e-01 5.555700e-01 0.000000e+00
8.154930e-01 5.448950e-01 -1.950900e-01
7.681780e-01 5.132800e-01 -3.826830e-01
-7.681780e-01 5.132800e-01 3.826830e-01
-8.154930e-01 5.448950e-01 1.950900e-01
-8.314690e-01 5.555700e-01 0.000000e+00
-8.154930e-01 5.448950e-01 -1.950900e-01
-7.681780e-01 5.132800e-01 -3.826830e-01
-5.000000e-01 5.000000e-01 7.071070e-01
-5.879370e-01 5.879370e-01 5.555700e-01
-6.532810e-01 6.532810e-01 3.826830e-01
-6.935190e-01 6.935190e-01 1.950900e-01
-7.071060e-01 7.071060e-01 0.000000e+00
-6.935190e-01 6.935190e-01 -1.950900e-01
-6.532810e-01 6.532810e-01 -3.826830e-01
-5.879370e-01 5.879370e-01 -5.555700e-01
-5.000000e-01 5.000000e-01 -7.071070e-01
-3.928470e-01 5.879370e-01 7.071070e-01
-4.619390e-01 6.913410e-01 5.555700e-01
-5.132800e-01 7.681770e-01 3.826830e-01
-5.448950e-01 8.154920e-01 1.950900e-01
-5.555700e-01 8.314690e-01 0.000000e+00
-5.448950e-01 8.154920e-01 -1.950900e-01
-5.132800e-01 7.681770e-01 -3.826830e-01
-4.619390e-01 6.913410e-01 -5.555700e-01
-3.928470e-01 5.879370e-01 -7.071070e-01
-2.126070e-01 5.132800e-01 8.314700e-01
-2.705980e-01 6.532810e-01 7.071070e-01
-3.181890e-01 7.681770e-01 5.555700e-01
-3.535530e-01 8.535530e-01 3.826830e-01
-3.753300e-01 9.061270e-01 1.950900e-01
-3.826830e-01 9.238790e-01 0.000000e+00
-3.753300e-01 9.061270e-01 -1.950900e-01
-3.535530e-01 8.535530e-01 -3.826830e-01
-3.181890e-01 7.681770e-01 -5.555700e-01
-2.705980e-01 6.532810e-01 -7.071070e-01
-2.126070e-01 5.132790e-01 -8.314700e-01
-1.083860e-01 5.448950e-01 8.314700e-01
-1.379500e-01 6.935200e-01 7.071070e-01
-1.622110e-01 8.154920e-01 5.555700e-01
-1.802400e-01 9.061270e-01 3.826830e-01
-1.913410e-01 9.619390e-01 1.950900e-01
-1.950900e-01 9.807850e-01 0.000000e+00
-1.913410e-01 9.619390e-01 -1.950900e-01
-1.802400e-01 9.061270e-01 -3.826830e-01
-1.622110e-01 8.154920e-01 -5.555700e-01
-1.379500e-01 6.935200e-01 -7.071070e-01
-1.083860e-01 5.448950e-01 -8.314700e-01
0.000000e+00 9.238790e-01 -3.826830e-01
0.000000e+00 8.314690e-01 -5.555700e-01
0.000000e+00 7.071060e-01 -7.071070e-01
6.796730e-01 4.761580e-01 5.555700e-01
7.126210e-01 4.761580e-01 5.076910e-01
7.126210e-01 4.761580e-01 -5.076910e-01
6.796730e-01 4.761580e-01 -5.555700e-01
5.195670e-01 4.761580e-01 -7.071070e-01
2.820580e-01 4.761580e-01 -8.314700e-01
-3.181590e-01 4.761580e-01 -8.174360e-01
-2.820570e-01 4.761580e-01 -8.314700e-01
-4.761580e-01 4.761580e-01 -7.347780e-01
4.761580e-01 4.761580e-01 -7.347780e-01
3.181590e-01 4.761580e-01 -8.174360e-01
0.000000e+00 4.761580e-01 -8.739160e-01
7.880200e-01 4.761580e-01 3.826830e-01
8.739170e-01 4.761580e-01 0.000000e+00
8.522340e-01 4.761580e-01 1.950900e-01
8.522340e-01 4.761580e-01 -1.950900e-01
7.880200e-01 4.761580e-01 -3.826830e-01
-5.195660e-01 4.761580e-01 -7.071070e-01
1.972310e-01 4.761580e-01 -8.529470e-01
9.471400e-02 4.761580e-01 -8.689300e-01
-9.471400e-02 4.761580e-01 -8.689300e-01
-1.972310e-01 4.761580e-01 -8.529460e-01
3.181590e-01 4.761580e-01 8.174360e-01
2.820580e-01 4.761580e-01 8.314700e-01
9.471400e-02 4.761580e-01 8.689300e-01
0.000000e+00 4.761580e-01 8.739160e-01
-3.181590e-01 4.761580e-01 8.174360e-01
-2.820570e-01 4.761580e-01 8.314700e-01
-4.761580e-01 4.761580e-01 7.347780e-01
-6.796720e-01 4.761580e-01 5.555700e-01
-7.126210e-01 4.761580e-01 5.076900e-01
-7.126210e-01 4.761580e-01 -5.076900e-01
-6.796720e-01 4.761580e-01 -5.555700e-01
1.972310e-01 4.761580e-01 8.529470e-01
-9.471400e-02 4.761580e-01 8.689300e-01
-1.972310e-01 4.761580e-01 8.529460e-01
5.195670e-01 4.761580e-01 7.071070e-01
4.761580e-01 4.761580e-01 7.347780e-01
-5.195660e-01 4.761580e-01 7.071070e-01
-7.880200e-01 4.761580e-01 3.826830e-01
-8.522330e-01 4.761580e-01 1.950900e-01
-8.739160e-01 4.761580e-01 0.000000e+00
-7.880200e-01 4.761580e-01 -3.826830e-01
-8.522330e-01 4.761580e-01 -1.950900e-01
3 30 20 19
3 30 19 124
3 30 124 123
3 106 29 28
3 106 28 38
3 106 38 111
3 19 134 124
3 39 138 137
3 48 41 40
3 48 40 101
3 48 101 102
3 104 46 45
3 104 45 52
3 104 52 103
3 48 102 113
3 60 53 131
3 60 131 130
3 60 130 59
3 77 67 127
3 77 127 128
3 77 128 76
3 128 136 76
3 86 108 107
3 86 107 75
3 86 75 85
3 109 118 66
3 132 143 57
3 105 110 47
3 122 108 86
3 117 103 52
3 140 131 53
3 65 133 132
3 65 132 57
3 65 57 64
3 106 119 29
3 139 129 58
3 5 4 12
3 5 12 13
3 6 5 13
3 6 13 14
3 98 6 14
3 98 14 15
3 0 126 125
3 0 125 8
3 99 98 15
3 99 15 16
3 1 0 8
3 1 8 9
3 100 99 16
3 100 16 17
3 2 1 9
3 2 9 10
3 7 100 17
3 7 17 18
3 3 2 10
3 3 10 11
3 4 3 11
3 4 11 12
3 12 11 22
3 12 22 23
3 13 12 23
3 13 23 24
3 14 13 24
3 14 24 25
3 15 14 25
3 15 25 26
3 8 125 134
3 8 134 19
3 16 15 26
3 16 26 27
3 9 8 19
3 9 19 20
3 17 16 27
3 17 27 28
3 10 9 20
3 10 20 21
3 18 17 28
3 18 28 29
3 11 10 21
3 11 21 22
3 27 26 36
3 27 36 37
3 28 27 37
3 28 37 38
3 21 20 30
3 21 30 31
3 22 21 31
3 22 31 32
3 23 22 32
3 23 32 33
3 24 23 33
3 24 33 34
3 25 24 34
3 25 34 35
3 26 25 35
3 26 35 36
3 34 33 42
3 34 42 43
3 35 34 43
3 35 43 44
3 36 35 44
3 36 44 45
3 37 36 45
3 37 45 46
3 30 123 138
3 30 138 39
3 38 37 46
3 38 46 47
3 31 30 39
3 31 39 40
3 32 31 40
3 32 40 41
3 33 32 41
3 33 41 42
3 47 46 104
3 47 104 105
3 40 39 137
3 40 137 101
3 42 41 48
3 42 48 49
3 43 42 49
3 43 49 50
3 44 43 50
3 44 50 51
3 45 44 51
3 45 51 52
3 50 49 115
3 50 115 114
3 51 50 114
3 51 114 116
3 52 51 116
3 52 116 117
3 49 48 113
3 49 113 115
3 54 53 60
3 54 60 61
3 55 54 61
3 55 61 62
3 56 55 62
3 56 62 63
3 57 56 63
3 57 63 64
3 65 64 73
3 65 73 74
3 58 129 127
3 58 127 67
3 66 65 74
3 66 74 75
3 59 58 67
3 59 67 68
3 60 59 68
3 60 68 69
3 61 60 69
3 61 69 70
3 62 61 70
3 62 70 71
3 63 62 71
3 63 71 72
3 64 63 72
3 64 72 73
3 71 70 80
3 71 80 81
3 72 71 81
3 72 81 82
3 73 72 82
3 73 82 83
3 74 73 83
3 74 83 84
3 75 74 84
3 75 84 85
3 68 67 77
3 68 77 78
3 69 68 78
3 69 78 79
3 70 69 79
3 70 79 80
3 85 84 95
3 85 95 96
3 78 77 88
3 78 88 89
3 86 85 96
3 86 96 97
3 79 78 89
3 79 89 90
3 80 79 90
3 80 90 91
3 81 80 91
3 81 91 92
3 82 81 92
3 82 92 93
3 83 82 93
3 83 93 94
3 76 136 135
3 76 135 87
3 84 83 94
3 84 94 95
3 77 76 87
3 77 87 88
3 93 92 5
3 93 5 6
3 94 93 6
3 94 6 98
3 87 135 126
3 87 126 0
3 95 94 98
3 95 98 99
3 88 87 0
3 88 0 1
3 96 95 99
3 96 99 100
3 89 88 1
3 89 1 2
3 97 96 100
3 97 100 7
3 90 89 2
3 90 2 3
3 91 90 3
3 91 3 4
3 92 91 4
3 92 4 5
3 142 141 54
3 142 54 55
3 112 121 97
3 112 97 7
3 141 140 53
3 141 53 54
3 118 133 65
3 118 65 66
3 107 109 66
3 107 66 75
3 144 142 55
3 144 55 56
3 120 112 7
3 120 7 18
3 130 139 58
3 130 58 59
3 119 120 18
3 119 18 29
3 110 111 38
3 110 38 47
3 121 122 86
3 121 86 97
3 143 144 56
3 143 56 57
130 101 104 133 145 0 1 2 3 4 5 6 7 8 9 10 11 12 13 14 15 16 17 18 19 20 21 22 23 24 25 26 27 28 29 30 31 32 33 34 35 36 37 38 39 40 41 42 43 44 45 46 47 48 49 50 51 52 53 54 55 56 57 58 59 60 61 62 63 64 65 66 67 68 69 70 71 72 73 74 75 76 77 78 79 80 81 82 83 84 85 86 87 88 89 90 91 92 93 94 95 96 97 98 99 100 101 102 103 104 105 106 107 108 109 110 111 112 113 114 115 116 117 118 119 120 121 122 123 124 125 126 127 128 129 130 131 132 133 134 135 136 137 138 139 140 141 142 143 144 15 15 3 675 -6.796720e-01 4.761580e-01 -5.555700e-01 -6.036144e-01 4.761580e-01 -6.225439e-01 -5.275568e-01 4.761580e-01 -6.895178e-01 -4.102338e-01 4.783275e-01 -7.322600e-01 -2.068970e-01 4.850192e-01 -7.244936e-01 -3.560266e-03 4.917110e-01 -7.167272e-01 1.997765e-01 4.984027e-01 -7.089608e-01 -4.107709e-02 4.845141e-01 -8.018325e-01 2.181571e-02 4.889303e-01 -8.637089e-01 7.185913e-02 5.237855e-01 -8.155643e-01 3.493450e-01 5.352686e-01 -7.216813e-01 -4.525766e-01 4.761580e-01 -7.438032e-01 3.625425e-01 4.761580e-01 -5.811427e-01 5.375817e-01 4.761580e-01 -3.672584e-02 7.126210e-01 4.761580e-01 5.076910e-01 -6.796720e-01 4.761580e-01 -4.762029e-01 -6.293035e-01 4.898228e-01 -5.900478e-01 -5.529062e-01 4.899358e-01 -6.572392e-01 -4.845718e-01 5.048044e-01 -7.033989e-01 -4.431464e-01 5.412033e-01 -6.940615e-01 -4.584169e-01 5.220869e-01 -7.040706e-01 -4.685926e-01 5.387680e-01 -6.870195e-01 -3.710668e-01 4.991084e-01 -7.255997e-01 -1.676638e-01 6.675535e-01 -6.824206e-01 2.972425e-01 8.150831e-01 -2.825820e-01 4.280521e-01 6.131237e-01 -3.216330e-01 8.296563e-02 6.119227e-01 -2.469274e-01 5.552449e-01 5.565091e-01 1.544118e-01 6.817358e-01 5.156687e-01 4.978961e-01 6.246076e-01 4.761580e-01 5.219350e-01 -6.796720e-01 4.761580e-01 -3.968357e-01 -6.540978e-01 5.011905e-01 -5.464268e-01 -5.768654e-01 5.019048e-01 -6.274919e-01 -5.080080e-01 5.124895e-01 -6.789642e-01 -4.606591e-01 5.537265e-01 -6.749644e-01 -4.451347e-01 5.656763e-01 -6.736656e-01 -4.267429e-01 5.888271e-01 -6.615410e-01 -3.017713e-01 6.292875e-01 -6.938886e-01 -8.540767e-02 7.501323e-01 -4.046350e-01 3.469400e-01 8.419700e-01 -3.829507e-03 3.681969e-01 6.804407e-01 9.078693e-02 5.663887e-01 6.370218e-01 3.255461e-01 6.519126e-01 5.541272e-01 4.891238e-01 6.217667e-01 5.074463e-01 5.301484e-01 5.365943e-01 4.761580e-01 5.361790e-01 -6.796720e-01 4.761580e-01 -3.174686e-01 -6.558354e-01 5.052029e-01 -4.814804e-01 -6.015389e-01 5.150794e-01 -5.962443e-01 -5.298810e-01 5.201681e-01 -6.555577e-01 -4.811061e-01 5.614671e-01 -6.560816e-01 -4.300648e-01 6.146387e-01 -6.364960e-01 -4.163583e-01 6.358289e-01 -6.245272e-01 -1.279292e-01 8.284501e-01 -4.313238e-01 -4.385359e-03 8.662938e-01 -3.137058e-01 4.462490e-01 7.927640e-01 2.215668e-01 5.596877e-01 6.926119e-01 4.100662e-01 6.073404e-01 6.132583e-01 4.721368e-01 6.233329e-01 5.443174e-01 5.337286e-01 5.497848e-01 5.008552e-01 5.401645e-01 4.485809e-01 4.761580e-01 5.504230e-01 -6.796720e-01 4.761580e-01 -2.381014e-01 -6.569560e-01 5.038374e-01 -4.099015e-01 -6.262201e-01 5.296265e-01 -5.564745e-01 -5.529157e-01 5.310082e-01 -6.275491e-01 -5.027453e-01 5.646557e-01 -6.376359e-01 -4.566001e-01 6.190008e-01 -6.204855e-01 -3.981901e-01 6.772712e-01 -5.971334e-01 -1.556972e-01 8.264791e-01 -4.348416e-01 1.181243e-01 9.242710e-01 -1.072981e-01 4.160352e-01 7.757439e-01 2.926856e-01 5.697356e-01 6.621360e-01 4.596021e-01 6.079483e-01 5.869896e-01 5.176615e-01 5.588679e-01 5.268385e-01 5.451335e-01 4.632162e-01 5.003930e-01 5.540602e-01 3.605676e-01 4.761580e-01 5.646670e-01 -6.796720e-01 4.761580e-01 -1.587343e-01 -6.571652e-01 5.035825e-01 -3.333116e-01 -6.328355e-01 5.332282e-01 -4.952381e-01 -5.768075e-01 5.433886e-01 -5.975640e-01 -5.219899e-01 5.700077e-01 -6.190157e-01 -4.815720e-01 6.198703e-01 -6.043116e-01 -4.238660e-01 6.854664e-01 -5.782103e-01 -2.611773e-01 8.308075e-01 -4.481045e-01 1.416061e-01 9.064070e-01 8.302886e-03 4.272009e-01 7.359577e-01 3.261765e-01 5.789523e-01 6.292627e-01 4.998409e-01 5.648930e-01 5.554030e-01 5.512370e-01 4.778165e-01 5.246405e-01 5.577061e-01 3.752107e-01 5.003906e-01 5.683023e-01 2.725542e-01 4.761580e-01 5.789110e-01 -6.796720e-01 4.761580e-01 -7.936714e-02 -6.571683e-01 5.035788e-01 -2.539736e-01 -6.343647e-01 5.313649e-01 -4.245849e-01 -6.038278e-01 5.534913e-01 -5.633814e-01 -5.410245e-01 5.757129e-01 -6.002362e-01 -5.016957e-01 6.226907e-01 -5.872905e-01 -3.900723e-01 7.327510e-01 -4.957803e-01 -1.909971e-01 8.259937e-01 -2.787119e-01 2.105611e-01 8.666060e-01 1.044841e-01 4.557132e-01 6.853441e-01 3.813560e-01 5.471310e-01 6.155218e-01 5.467438e-01 4.915584e-01 5.491703e-01 5.615609e-01 3.898530e-01 5.246234e-01 5.719378e-01 2.871974e-01 5.003906e-01 5.825463e-01 1.845409e-01 4.761580e-01 5.931550e-01 -6.796720e-01 4.761580e-01 3.122502e-17 -6.571685e-01 5.035785e-01 -1.746099e-01 -6.346379e-01 5.310320e-01 -3.488647e-01 -6.103482e-01 5.606290e-01 -5.047708e-01 -5.610123e-01 5.835292e-01 -5.789090e-01 -5.163358e-01 6.332791e-01 -5.673868e-01 -3.973013e-01 7.491356e-01 -4.653795e-01 -9.916938e-02 8.617296e-01 -1.408464e-01 3.057519e-01 8.500524e-01 2.940582e-01 5.000049e-01 6.856787e-01 4.941416e-01 4.951367e-01 5.765655e-01 5.708638e-01 4.044857e-01 5.488602e-01 5.755758e-01 3.018405e-01 5.246231e-01 5.861816e-01 1.991840e-01 5.003906e-01 5.967903e-01 9.652750e-02 4.761580e-01 6.073990e-01 -6.796720e-01 4.761580e-01 7.936714e-02 -6.571685e-01 5.035785e-01 -9.524303e-02 -6.346646e-01 5.309995e-01 -2.698468e-01 -6.116360e-01 5.590598e-01 -4.378809e-01 -5.689773e-01 6.029373e-01 -5.379982e-01 -5.036956e-01 6.745608e-01 -5.142995e-01 -3.759733e-01 8.087151e-01 -3.798434e-01 -3.329942e-02 9.143183e-01 3.508662e-02 3.206284e-01 7.660383e-01 3.904266e-01 4.569478e-01 6.404418e-01 5.724065e-01 4.088596e-01 5.687935e-01 5.893380e-01 3.156718e-01 5.486070e-01 5.898866e-01 2.138263e-01 5.246229e-01 6.004256e-01 1.111706e-01 5.003906e-01 6.110343e-01 8.514143e-03 4.761580e-01 6.216430e-01 -6.796720e-01 4.761580e-01 1.587343e-01 -6.571685e-01 5.035785e-01 -1.587588e-02 -6.346641e-01 5.310001e-01 -1.904836e-01 -6.112723e-01 5.595029e-01 -3.627608e-01 -5.288272e-01 5.949625e-01 -4.622593e-01 -4.485137e-01 7.062062e-01 -4.065807e-01 -2.812579e-01 8.321184e-01 -2.095300e-01 4.774481e-02 8.886719e-01 1.335326e-01 3.324700e-01 7.829469e-01 4.913633e-01 3.718859e-01 6.234667e-01 5.989740e-01 3.104753e-01 5.554089e-01 6.306389e-01 2.213931e-01 5.493114e-01 6.114094e-01 1.257563e-01 5.246077e-01 6.146751e-01 2.315723e-02 5.003905e-01 6.252783e-01 -7.949921e-02 4.761580e-01 6.358870e-01 -6.796720e-01 4.761580e-01 2.381014e-01 -6.571684e-01 5.035787e-01 6.349158e-02 -6.344578e-01 5.312514e-01 -1.107598e-01 -4.849722e-01 5.547079e-01 -1.914654e-01 -4.737562e-01 6.113892e-01 -3.707112e-01 -3.908692e-01 7.417599e-01 -2.947787e-01 -1.910335e-01 8.647937e-01 -5.568291e-02 1.377880e-01 8.979648e-01 3.125075e-01 2.955874e-01 7.290473e-01 5.767842e-01 2.627465e-01 6.275637e-01 6.251297e-01 2.006783e-01 5.660624e-01 6.595614e-01 1.251554e-01 5.375536e-01 6.438253e-01 3.506493e-02 5.236937e-01 6.291260e-01 -6.485919e-02 5.003895e-01 6.395225e-01 -1.675126e-01 4.761580e-01 6.501310e-01 -6.796720e-01 4.761580e-01 3.174686e-01 -6.571495e-01 5.036016e-01 1.427638e-01 -5.087096e-01 5.333686e-01 1.817532e-02 -4.162339e-01 5.438505e-01 -6.277124e-02 -3.779761e-01 6.298075e-01 -2.160388e-01 -3.940875e-01 7.707390e-01 -2.856529e-01 -1.627638e-01 8.778827e-01 -1.067895e-02 1.083595e-01 8.490214e-01 3.943981e-01 2.327615e-01 6.986284e-01 6.032958e-01 1.549058e-01 6.324007e-01 6.479555e-01 9.146940e-02 5.653736e-01 6.872097e-01 2.216268e-02 5.235386e-01 6.824723e-01 -6.008244e-02 5.200343e-01 6.610007e-01 -1.535139e-01 5.001772e-01 6.538177e-01 -2.555259e-01 4.761580e-01 6.643750e-01 -6.796720e-01 4.761580e-01 3.968357e-01 -5.932670e-01 5.136165e-01 1.967539e-01 -4.334326e-01 5.179938e-01 1.953119e-01 -2.092849e-01 5.273376e-01 1.646016e-01 -2.829257e-01 6.411036e-01 -6.474711e-02 -4.269843e-01 8.260212e-01 -2.470514e-01 -2.087994e-01 8.986579e-01 3.519803e-02 6.049467e-02 8.389133e-01 4.206999e-01 1.997108e-01 6.472656e-01 6.608664e-01 1.134863e-01 6.190940e-01 6.866652e-01 -1.413247e-02 5.645094e-01 7.132538e-01 -8.313847e-02 5.087434e-01 7.251469e-01 -1.592336e-01 5.067486e-01 6.969937e-01 -2.454355e-01 5.023114e-01 6.695120e-01 -3.435393e-01 4.761580e-01 6.786190e-01 -6.796720e-01 4.761580e-01 4.762029e-01 -5.109054e-01 4.953560e-01 4.048874e-01 -1.972068e-01 4.992286e-01 4.478830e-01 -2.167740e-01 5.894966e-01 3.155910e-01 -2.200984e-01 6.060222e-01 2.437444e-01 -2.722927e-01 6.450696e-01 1.615333e-01 -5.034678e-02 7.435513e-01 3.452862e-01 -1.362909e-02 7.612079e-01 4.229207e-01 1.433537e-01 5.632877e-01 7.312644e-01 -1.108973e-03 5.687457e-01 7.319198e-01 -1.018776e-01 5.475703e-01 7.520880e-01 -1.869782e-01 4.998377e-01 7.743730e-01 -2.635910e-01 4.918447e-01 7.409229e-01 -3.425941e-01 4.903026e-01 7.081060e-01 -4.315526e-01 4.761580e-01 6.928630e-01 -6.796720e-01 4.761580e-01 5.555700e-01 -2.740180e-01 4.761580e-01 6.620279e-01 1.316360e-01 4.761580e-01 7.684858e-01 -4.115986e-01 4.761580e-01 7.669384e-01 2.144283e-01 5.023214e-01 7.024859e-01 -2.031341e-01 5.381243e-01 6.961622e-01 7.737015e-02 5.064679e-01 8.446073e-01 -1.122603e-01 4.831620e-01 8.213918e-01 -1.807043e-01 5.052219e-01 7.160034e-01 -2.710537e-01 5.109786e-01 7.376824e-01 -2.913209e-01 4.959969e-01 7.719966e-01 -3.115881e-01 4.810152e-01 8.063109e-01 -3.690257e-01 4.761580e-01 7.895717e-01 -4.442958e-01 4.761580e-01 7.483393e-01 -5.195660e-01 4.761580e-01 7.071070e-01