ply
format ascii 1.0
element vertex 145
property float x
property float y
property float z
element face 244
property list uchar uint vertex_indices
element cornerrectangle 1
property uint rightup
property uint leftup
property uint leftdown
property uint rightdown
property list uchar uchar vertexlist
property uint ulength
property uint vlength
property uchar numbercoordinates
property list uint float datamatrix
end_header
0.000000e+00 5.555700e-01 8.314700e-01
0.000000e+00 7.071070e-01 7.071070e-01
0.000000e+00 8.314700e-01 5.555700e-01
0.000000e+00 9.238800e-01 3.826830e-01
0.000000e+00 9.807850e-01 1.950900e-01
0.000000e+00 1.000000e+00 0.000000e+00
0.000000e+00 9.807850e-01 -1.950900e-01
0.000000e+00 5.555700e-01 -8.314700e-01
1.083860e-01 5.448950e-01 8.314700e-01
1.379500e-01 6.935200e-01 7.071070e-01
1.622120e-01 8.154930e-01 5.555700e-01
1.802400e-01 9.061270e-01 3.826830e-01
1.913420e-01 9.619400e-01 1.950900e-01
1.950900e-01 9.807850e-01 0.000000e+00
1.913420e-01 9.619400e-01 -1.950900e-01
1.802400e-01 9.061270e-01 -3.826830e-01
1.622120e-01 8.154930e-01 -5.555700e-01
1.379500e-01 6.935200e-01 -7.071070e-01
1.083860e-01 5.448950e-01 -8.314700e-01
2.126080e-01 5.132800e-01 8.314700e-01
2.705980e-01 6.532810e-01 7.071070e-01
3.181900e-01 7.681780e-01 5.555700e-01
3.535530e-01 8.535530e-01 3.826830e-01
3.753300e-01 9.061270e-01 1.950900e-01
3.826840e-01 9.238790e-01 0.000000e+00
3.753300e-01 9.061270e-01 -1.950900e-01
3.535540e-01 8.535530e-01 -3.826830e-01
3.181900e-01 7.681780e-01 -5.555700e-01
2.705980e-01 6.532810e-01 -7.071070e-01
2.126080e-01 5.132800e-01 -8.314700e-01
3.928480e-01 5.879380e-01 7.071070e-01
4.619400e-01 6.913420e-01 5.555700e-01
5.132800e-01 7.681780e-01 3.826830e-01
5.448950e-01 8.154930e-01 1.950900e-01
5.555700e-01 8.314690e-01 0.000000e+00
5.448950e-01 8.154930e-01 -1.950900e-01
5.132800e-01 7.681780e-01 -3.826830e-01
4.619400e-01 6.913420e-01 -5.555700e-01
3.928480e-01 5.879380e-01 -7.071070e-01
5.000000e-01 5.000000e-01 7.071070e-01
5.879380e-01 5.879380e-01 5.555700e-01
6.532820e-01 6.532810e-01 3.826830e-01
6.935200e-01 6.935200e-01 1.950900e-01
7.071070e-01 7.071070e-01 0.000000e+00
6.935200e-01 6.935200e-01 -1.950900e-01
6.532820e-01 6.532810e-01 -3.826830e-01
5.879380e-01 5.879380e-01 -5.555700e-01
5.000000e-01 5.000000e-01 -7.071070e-01
7.681780e-01 5.132800e-01 3.826830e-01
8.154930e-01 5.448950e-01 1.950900e-01
8.314700e-01 5.555700e-01 0.000000e+00
8.154930e-01 5.448950e-01 -1.950900e-01
7.681780e-01 5.132800e-01 -3.826830e-01
-7.681780e-01 5.132800e-01 3.826830e-01
-8.154930e-01 5.448950e-01 1.950900e-01
-8.314690e-01 5.555700e-01 0.000000e+00
-8.154930e-01 5.448950e-01 -1.950900e-01
-7.681780e-01 5.132800e-01 -3.826830e-01
-5.000000e-01 5.000000e-01 7.071070e-01
-5.879370e-01 5.879370e-01 5.555700e-01
-6.532810e-01 6.532810e-01 3.826830e-01
-6.935190e-01 6.935190e-01 1.950900e-01
-7.071060e-01 7.071060e-01 0.000000e+00
-6.935190e-01 6.935190e-01 -1.950900e-01
-6.532810e-01 6.532810e-01 -3.826830e-01
-5.879370e-01 5.879370e-01 -5.555700e-01
-5.000000e-01 5.000000e-01 -7.071070e-01
-3.928470e-01 5.879370e-01 7.071070e-01
-4.619390e-01 6.913410e-01 5.555700e-01
-5.132800e-01 7.681770e-01 3.826830e-01
-5.448950e-01 8.154920e-01 1.950900e-01
-5.555700e-01 8.314690e-01 0.000000e+00
-5.448950e-01 8.154920e-01 -1.950900e-01
-5.132800e-01 7.681770e-01 -3.826830e-01
-4.619390e-01 6.913410e-01 -5.555700e-01
-3.928470e-01 5.879370e-01 -7.071070e-01
-2.126070e-01 5.132800e-01 8.314700e-01
-2.705980e-01 6.532810e-01 7.071070e-01
-3.181890e-01 7.681770e-01 5.555700e-01
-3.535530e-01 8.535530e-01 3.826830e-01
-3.753300e-01 9.061270e-01 1.950900e-01
-3.826830e-01 9.238790e-01 0.000000e+00
-3.753300e-01 9.061270e-01 -1.950900e-01
-3.535530e-01 8.535530e-01 -3.826830e-01
-3.181890e-01 7.681770e-01 -5.555700e-01
-2.705980e-01 6.532810e-01 -7.071070e-01
-2.126070e-01 5.132790e-01 -8.314700e-01
-1.083860e-01 5.448950e-01 8.314700e-01
-1.379500e-01 6.935200e-01 7.071070e-01
-1.622110e-01 8.154920e-01 5.555700e-01
-1.802400e-01 9.061270e-01 3.826830e-01
-1.913410e-01 9.619390e-01 1.950900e-01
-1.950900e-01 9.807850e-01 0.000000e+00
-1.913410e-01 9.619390e-01 -1.950900e-01
-1.802400e-01 9.061270e-01 -3.826830e-01
-1.622110e-01 8.154920e-01 -5.555700e-01
-1.379500e-01 6.935200e-01 -7.071070e-01
-1.083860e-01 5.448950e-01 -8.314700e-01
0.000000e+00 9.238790e-01 -3.826830e-01
0.000000e+00 8.314690e-01 -5.555700e-01
0.000000e+00 7.071060e-01 -7.071070e-01
6.796730e-01 4.761580e-01 5.555700e-01
7.126210e-01 4.761580e-01 5.076910e-01
7.126210e-01 4.761580e-01 -5.076910e-01
6.796730e-01 4.761580e-01 -5.555700e-01
5.195670e-01 4.761580e-01 -7.071070e-01
2.820580e-01 4.761580e-01 -8.314700e-01
-3.181590e-01 4.761580e-01 -8.174360e-01
-2.820570e-01 4.761580e-01 -8.314700e-01
-4.761580e-01 4.761580e-01 -7.347780e-01
4.761580e-01 4.761580e-01 -7.347780e-01
3.181590e-01 4.761580e-01 -8.174360e-01
0.000000e+00 4.761580e-01 -8.739160e-01
7.880200e-01 4.761580e-01 3.826830e-01
8.739170e-01 4.761580e-01 0.000000e+00
8.522340e-01 4.761580e-01 1.950900e-01
8.522340e-01 4.761580e-01 -1.950900e-01
7.880200e-01 4.761580e-01 -3.826830e-01
-5.195660e-01 4.761580e-01 -7.071070e-01
1.972310e-01 4.761580e-01 -8.529470e-01
9.471400e-02 4.761580e-01 -8.689300e-01
-9.471400e-02 4.761580e-01 -8.689300e-01
-1.972310e-01 4.761580e-01 -8.529460e-01
3.181590e-01 4.761580e-01 8.174360e-01
2.820580e-01 4.761580e-01 8.314700e-01
9.471400e-02 4.761580e-01 8.689300e-01
0.000000e+00 4.761580e-01 8.739160e-01
-3.181590e-01 4.761580e-01 8.174360e-01
-2.820570e-01 4.761580e-01 8.314700e-01
-4.761580e-01 4.761580e-01 7.347780e-01
-6.796720e-01 4.761580e-01 5.555700e-01
-7.126210e-01 4.761580e-01 5.076900e-01
-7.126210e-01 4.761580e-01 -5.076900e-01
-6.796720e-01 4.761580e-01 -5.555700e-01
1.972310e-01 4.761580e-01 8.529470e-01
-9.471400e-02 4.761580e-01 8.689300e-01
-1.972310e-01 4.761580e-01 8.529460e-01
5.195670e-01 4.761580e-01 7.071070e-01
4.761580e-01 4.761580e-01 7.347780e-01
-5.195660e-01 4.761580e-01 7.071070e-01
-7.880200e-01 4.761580e-01 3.826830e-01
-8.522330e-01 4.761580e-01 1.950900e-01
-8.739160e-01 4.761580e-01 0.000000e+00
-7.880200e-01 4.761580e-01 -3.826830e-01
-8.522330e-01 4.761580e-01 -1.950900e-01
3 30 20 19
3 30 19 124
3 30 124 123
3 106 29 28
3 106 28 38
3 106 38 111
3 19 134 124
3 39 138 137
3 48 41 40
3 48 40 101
3 48 101 102
3 104 46 45
3 104 45 52
3 104 52 103
3 48 102 113
3 60 53 131
3 60 131 130
3 60 130 59
3 77 67 127
3 77 127 128
3 77 128 76
3 128 136 76
3 86 108 107
3 86 107 75
3 86 75 85
3 109 118 66
3 132 143 57
3 105 110 47
3 122 108 86
3 117 103 52
3 140 131 53
3 65 133 132
3 65 132 57
3 65 57 64
3 106 119 29
3 139 129 58
3 5 4 12
3 5 12 13
3 6 5 13
3 6 13 14
3 98 6 14
3 98 14 15
3 0 126 125
3 0 125 8
3 99 98 15
3 99 15 16
3 1 0 8
3 1 8 9
3 100 99 16
3 100 16 17
3 2 1 9
3 2 9 10
3 7 100 17
3 7 17 18
3 3 2 10
3 3 10 11
3 4 3 11
3 4 11 12
3 12 11 22
3 12 22 23
3 13 12 23
3 13 23 24
3 14 13 24
3 14 24 25
3 15 14 25
3 15 25 26
3 8 125 134
3 8 134 19
3 16 15 26
3 16 26 27
3 9 8 19
3 9 19 20
3 17 16 27
3 17 27 28
3 10 9 20
3 10 20 21
3 18 17 28
3 18 28 29
3 11 10 21
3 11 21 22
3 27 26 36
3 27 36 37
3 28 27 37
3 28 37 38
3 21 20 30
3 21 30 31
3 22 21 31
3 22 31 32
3 23 22 32
3 23 32 33
3 24 23 33
3 24 33 34
3 25 24 34
3 25 34 35
3 26 25 35
3 26 35 36
3 34 33 42
3 34 42 43
3 35 34 43
3 35 43 44
3 36 35 44
3 36 44 45
3 37 36 45
3 37 45 46
3 30 123 138
3 30 138 39
3 38 37 46
3 38 46 47
3 31 30 39
3 31 39 40
3 32 31 40
3 32 40 41
3 33 32 41
3 33 41 42
3 47 46 104
3 47 104 105
3 40 39 137
3 40 137 101
3 42 41 48
3 42 48 49
3 43 42 49
3 43 49 50
3 44 43 50
3 44 50 51
3 45 44 51
3 45 51 52
3 50 49 115
3 50 115 114
3 51 50 114
3 51 114 116
3 52 51 116
3 52 116 117
3 49 48 113
3 49 113 115
3 54 53 60
3 54 60 61
3 55 54 61
3 55 61 62
3 56 55 62
3 56 62 63
3 57 56 63
3 57 63 64
3 65 64 73
3 65 73 74
3 58 129 127
3 58 127 67
3 66 65 74
3 66 74 75
3 59 58 67
3 59 67 68
3 60 59 68
3 60 68 69
3 61 60 69
3 61 69 70
3 62 61 70
3 62 70 71
3 63 62 71
3 63 71 72
3 64 63 72
3 64 72 73
3 71 70 80
3 71 80 81
3 72 71 81
3 72 81 82
3 73 72 82
3 73 82 83
3 74 73 83
3 74 83 84
3 75 74 84
3 75 84 85
3 68 67 77
3 68 77 78
3 69 68 78
3 69 78 79
3 70 69 79
3 70 79 80
3 85 84 95
3 85 95 96
3 78 77 88
3 78 88 89
3 86 85 96
3 86 96 97
3 79 78 89
3 79 89 90
3 80 79 90
3 80 90 91
3 81 80 91
3 81 91 92
3 82 81 92
3 82 92 93
3 83 82 93
3 83 93 94
3 76 136 135
3 76 135 87
3 84 83 94
3 84 94 95
3 77 76 87
3 77 87 88
3 93 92 5
3 93 5 6
3 94 93 6
3 94 6 98
3 87 135 126
3 87 126 0
3 95 94 98
3 95 98 99
3 88 87 0
3 88 0 1
3 96 95 99
3 96 99 100
3 89 88 1
3 89 1 2
3 97 96 100
3 97 100 7
3 90 89 2
3 90 2 3
3 91 90 3
3 91 3 4
3 92 91 4
3 92 4 5
3 142 141 54
3 142 54 55
3 112 121 97
3 112 97 7
3 141 140 53
3 141 53 54
3 118 133 65
3 118 65 66
3 107 109 66
3 107 66 75
3 144 142 55
3 144 55 56
3 120 112 7
3 120 7 18
3 130 139 58
3 130 58 59
3 119 120 18
3 119 18 29
3 110 111 38
3 110 38 47
3 121 122 86
3 121 86 97
3 143 144 56
3 143 56 57
130 101 104 133 145 0 1 2 3 4 5 6 7 8 9 10 11 12 13 14 15 16 17 18 19 20 21 22 23 24 25 26 27 28 29 30 31 32 33 34 35 36 37 38 39 40 41 42 43 44 45 46 47 48 49 50 51 52 53 54 55 56 57 58 59 60 61 62 63 64 65 66 67 68 69 70 71 72 73 74 75 76 77 78 79 80 81 82 83 84 85 86 87 88 89 90 91 92 93 94 95 96 97 98 99 100 101 102 103 104 105 106 107 108 109 110 111 112 113 114 115 116 117 118 119 120 121 122 123 124 125 126 127 128 129 130 131 132 133 134 135 136 137 138 139 140 141 142 143 144 15 15 3 675 -6.796720e-01 4.761580e-01 -5.555700e-01 -5.992549e-01 4.761580e-01 -6.316831e-01 -5.176323e-01 4.761580e-01 -7.062515e-01 -4.227720e-01 4.761580e-01 -7.627072e-01 -3.244860e-01 4.761580e-01 -8.136476e-01 -2.193816e-01 4.761580e-01 -8.473380e-01 -1.104042e-01 4.761580e-01 -8.664837e-01 4.853239e-07 4.761580e-01 -8.728712e-01 1.104051e-01 4.761580e-01 -8.664837e-01 2.193827e-01 4.761580e-01 -8.473385e-01 3.244867e-01 4.761580e-01 -8.136472e-01 4.227727e-01 4.761580e-01 -7.627068e-01 5.176332e-01 4.761580e-01 -7.062514e-01 5.992559e-01 4.761580e-01 -6.316831e-01 6.796730e-01 4.761580e-01 -5.555700e-01 -7.267745e-01 4.761580e-01 -4.842244e-01 -6.450451e-01 5.069664e-01 -5.549285e-01 -5.596290e-01 5.357173e-01 -6.225829e-01 -4.620710e-01 5.602720e-01 -6.795219e-01 -3.555664e-01 5.803077e-01 -7.271481e-01 -2.413804e-01 5.941663e-01 -7.601472e-01 -1.221243e-01 6.039759e-01 -7.809808e-01 9.504360e-05 6.073085e-01 -7.879639e-01 1.221418e-01 6.033892e-01 -7.801146e-01 2.413849e-01 5.940700e-01 -7.599929e-01 3.553509e-01 5.796172e-01 -7.265426e-01 4.618175e-01 5.602353e-01 -6.794510e-01 5.587685e-01 5.356989e-01 -6.221028e-01 6.451153e-01 5.073706e-01 -5.550073e-01 7.267751e-01 4.761580e-01 -4.842241e-01 -7.709469e-01 4.761580e-01 -4.109892e-01 -6.856101e-01 5.332557e-01 -4.729109e-01 -5.995753e-01 5.888277e-01 -5.353865e-01 -4.956971e-01 6.318919e-01 -5.856157e-01 -3.818824e-01 6.679190e-01 -6.270688e-01 -2.604158e-01 6.969369e-01 -6.595750e-01 -1.320256e-01 7.148022e-01 -6.796517e-01 1.216745e-04 7.209197e-01 -6.866098e-01 1.323333e-01 7.149600e-01 -6.798661e-01 2.605041e-01 6.968139e-01 -6.592384e-01 3.819160e-01 6.679680e-01 -6.269977e-01 4.955564e-01 6.320031e-01 -5.856212e-01 5.997534e-01 5.896680e-01 -5.360986e-01 6.873432e-01 5.349895e-01 -4.742613e-01 7.709472e-01 4.761580e-01 -4.109889e-01 -8.050121e-01 4.761580e-01 -3.330419e-01 -7.253432e-01 5.599499e-01 -3.892709e-01 -6.308600e-01 6.305763e-01 -4.386891e-01 -5.239036e-01 6.914666e-01 -4.814882e-01 -4.057798e-01 7.437342e-01 -5.184729e-01 -2.768651e-01 7.836892e-01 -5.472353e-01 -1.402583e-01 8.073609e-01 -5.644033e-01 1.216524e-04 8.155290e-01 -5.703922e-01 1.405371e-01 8.080146e-01 -5.649524e-01 2.773278e-01 7.843193e-01 -5.476280e-01 4.057422e-01 7.437823e-01 -5.183736e-01 5.238208e-01 6.915504e-01 -4.814672e-01 6.305931e-01 6.305956e-01 -4.386460e-01 7.252479e-01 5.599424e-01 -3.892326e-01 8.050125e-01 4.761580e-01 -3.330416e-01 -8.327097e-01 4.761580e-01 -2.521258e-01 -7.507572e-01 5.758273e-01 -2.958501e-01 -6.580252e-01 6.657574e-01 -3.362014e-01 -5.497779e-01 7.425713e-01 -3.715510e-01 -4.254391e-01 8.044915e-01 -4.003194e-01 -2.897952e-01 8.510419e-01 -4.219938e-01 -1.468146e-01 8.810253e-01 -4.358037e-01 1.323117e-04 8.909310e-01 -4.404035e-01 1.469781e-01 8.807010e-01 -4.358365e-01 2.898638e-01 8.509368e-01 -4.221460e-01 4.254116e-01 8.044668e-01 -4.003860e-01 5.493469e-01 7.421521e-01 -3.711809e-01 6.576908e-01 6.653911e-01 -3.359466e-01 7.472151e-01 5.728351e-01 -2.943969e-01 8.327104e-01 4.761580e-01 -2.521256e-01 -8.549714e-01 4.761580e-01 -1.699927e-01 -7.746098e-01 5.913159e-01 -2.009827e-01 -6.780695e-01 6.909634e-01 -2.284692e-01 -5.659546e-01 7.759838e-01 -2.519995e-01 -4.386188e-01 8.462259e-01 -2.712567e-01 -2.992611e-01 9.004884e-01 -2.861092e-01 -1.516656e-01 9.353256e-01 -2.957056e-01 1.770252e-04 9.484429e-01 -2.995244e-01 1.519623e-01 9.352229e-01 -2.959491e-01 2.994682e-01 9.003509e-01 -2.863462e-01 4.386980e-01 8.461372e-01 -2.713941e-01 5.659692e-01 7.759721e-01 -2.520021e-01 6.792799e-01 6.919569e-01 -2.290172e-01 7.746799e-01 5.908936e-01 -2.008832e-01 8.549724e-01 4.761580e-01 -1.699926e-01 -8.644686e-01 4.761580e-01 -8.500191e-02 -7.844787e-01 5.972694e-01 -1.006967e-01 -6.891798e-01 7.052802e-01 -1.146603e-01 -5.769296e-01 7.978332e-01 -1.265901e-01 -4.478752e-01 8.738829e-01 -1.363156e-01 -3.057760e-01 9.324748e-01 -1.438443e-01 -1.548809e-01 9.700202e-01 -1.489511e-01 1.688001e-04 9.836782e-01 -1.510133e-01 1.553018e-01 9.699975e-01 -1.493191e-01 3.060308e-01 9.323536e-01 -1.442777e-01 4.479391e-01 8.738180e-01 -1.365933e-01 5.769129e-01 7.978839e-01 -1.267358e-01 6.900195e-01 7.061500e-01 -1.149237e-01 7.845291e-01 5.972042e-01 -1.007300e-01 8.644696e-01 4.761580e-01 -8.500188e-02 -8.722203e-01 4.761580e-01 -1.257675e-16 -7.926233e-01 6.025395e-01 6.063450e-06 -6.967121e-01 7.137358e-01 5.466379e-05 -5.829597e-01 8.079641e-01 9.288402e-05 -4.524426e-01 8.853947e-01 1.643209e-04 -3.086457e-01 9.444972e-01 2.055248e-04 -1.562230e-01 9.822011e-01 9.178015e-05 1.065227e-04 9.953773e-01 -1.187307e-04 1.566188e-01 9.833214e-01 -2.631613e-04 3.091696e-01 9.460688e-01 -1.803691e-04 4.523018e-01 8.855890e-01 -7.988095e-05 5.822863e-01 8.075670e-01 -2.399817e-05 6.959298e-01 7.132434e-01 -2.433260e-05 7.922306e-01 6.023651e-01 1.151485e-05 8.722213e-01 4.761580e-01 8.673617e-19 -8.644686e-01 4.761580e-01 8.500191e-02 -7.846113e-01 5.970896e-01 1.008150e-01 -6.904284e-01 7.061383e-01 1.151126e-01 -5.771652e-01 7.975897e-01 1.268777e-01 -4.481897e-01 8.736692e-01 1.367260e-01 -3.061809e-01 9.322944e-01 1.444058e-01 -1.552713e-01 9.700033e-01 1.492832e-01 -9.799768e-05 9.825011e-01 1.506274e-01 1.550000e-01 9.699767e-01 1.487103e-01 3.058564e-01 9.324443e-01 1.439091e-01 4.478027e-01 8.739094e-01 1.364270e-01 5.766847e-01 7.978248e-01 1.265982e-01 6.890744e-01 7.053851e-01 1.146414e-01 7.844432e-01 5.973150e-01 1.006896e-01 8.644696e-01 4.761580e-01 8.500188e-02 -8.549714e-01 4.761580e-01 1.699927e-01 -7.745697e-01 5.906049e-01 2.010562e-01 -6.789528e-01 6.910694e-01 2.291835e-01 -5.662730e-01 7.756084e-01 2.522918e-01 -4.390454e-01 8.458758e-01 2.716133e-01 -2.998109e-01 9.001857e-01 2.865401e-01 -1.521837e-01 9.351440e-01 2.961362e-01 -2.581653e-04 9.470525e-01 2.992392e-01 1.515588e-01 9.350675e-01 2.957088e-01 2.992081e-01 9.005008e-01 2.861211e-01 4.385182e-01 8.462912e-01 2.712244e-01 5.658422e-01 7.761274e-01 2.518713e-01 6.780033e-01 6.910909e-01 2.282574e-01 7.747692e-01 5.914064e-01 2.009285e-01 8.549724e-01 4.761580e-01 1.699926e-01 -8.327097e-01 4.761580e-01 2.521258e-01 -7.509282e-01 5.755102e-01 2.960788e-01 -6.590226e-01 6.659926e-01 3.367962e-01 -5.498770e-01 7.417854e-01 3.716329e-01 -4.258332e-01 8.039652e-01 4.006055e-01 -2.902542e-01 8.506973e-01 4.223629e-01 -1.472583e-01 8.806802e-01 4.363681e-01 -2.830814e-04 8.913331e-01 4.411670e-01 1.466677e-01 8.809116e-01 4.360444e-01 2.896493e-01 8.511148e-01 4.219426e-01 4.253300e-01 8.045430e-01 4.001903e-01 5.490664e-01 7.420466e-01 3.710392e-01 6.581902e-01 6.662094e-01 3.361167e-01 7.507163e-01 5.759269e-01 2.957463e-01 8.327104e-01 4.761580e-01 2.521256e-01 -8.050121e-01 4.761580e-01 3.330419e-01 -7.238379e-01 5.581559e-01 3.890361e-01 -6.314078e-01 6.307869e-01 4.395382e-01 -5.241424e-01 6.910902e-01 4.817504e-01 -4.060889e-01 7.434253e-01 5.187111e-01 -2.772516e-01 7.833265e-01 5.474218e-01 -1.408010e-01 8.089586e-01 5.661008e-01 -2.175382e-04 8.170492e-01 5.719302e-01 1.403292e-01 8.085964e-01 5.654847e-01 2.772861e-01 7.847097e-01 5.478982e-01 4.055854e-01 7.438946e-01 5.182778e-01 5.237172e-01 6.916944e-01 4.813814e-01 6.308803e-01 6.310938e-01 4.387554e-01 7.244447e-01 5.594697e-01 3.888350e-01 8.050125e-01 4.761580e-01 3.330416e-01 -7.709469e-01 4.761580e-01 4.109892e-01 -6.872575e-01 5.345043e-01 4.743653e-01 -5.999519e-01 5.892278e-01 5.362500e-01 -4.956245e-01 6.315302e-01 5.855884e-01 -3.820592e-01 6.676865e-01 6.272180e-01 -2.606926e-01 6.967036e-01 6.597502e-01 -1.324776e-01 7.153932e-01 6.806238e-01 -2.283938e-04 7.218098e-01 6.876269e-01 1.320109e-01 7.155551e-01 6.803599e-01 2.602739e-01 6.970157e-01 6.594152e-01 3.817170e-01 6.681015e-01 6.269685e-01 4.955243e-01 6.321299e-01 5.855021e-01 5.991718e-01 5.891484e-01 5.350881e-01 6.873868e-01 5.350208e-01 4.741606e-01 7.709472e-01 4.761580e-01 4.109889e-01 -7.267745e-01 4.761580e-01 4.842244e-01 -6.451649e-01 5.072731e-01 5.550602e-01 -5.590067e-01 5.356094e-01 6.222528e-01 -4.615659e-01 5.597764e-01 6.790638e-01 -3.555768e-01 5.799202e-01 7.270326e-01 -2.414223e-01 5.939188e-01 7.600391e-01 -1.222039e-01 6.035125e-01 7.804134e-01 -9.611860e-05 6.070218e-01 7.875084e-01 1.220546e-01 6.038781e-01 7.807575e-01 2.411157e-01 5.941088e-01 7.598050e-01 3.552970e-01 5.803595e-01 7.271202e-01 4.619313e-01 5.605144e-01 6.794018e-01 5.591438e-01 5.359058e-01 6.222579e-01 6.449819e-01 5.071625e-01 5.547962e-01 7.267751e-01 4.761580e-01 4.842241e-01 -6.796720e-01 4.761580e-01 5.555700e-01 -5.992549e-01 4.761580e-01 6.316831e-01 -5.176323e-01 4.761580e-01 7.062515e-01 -4.227720e-01 4.761580e-01 7.627072e-01 -3.244860e-01 4.761580e-01 8.136476e-01 -2.193816e-01 4.761580e-01 8.473380e-01 -1.104042e-01 4.761580e-01 8.664837e-01 4.853239e-07 4.761580e-01 8.728712e-01 1.104051e-01 4.761580e-01 8.664837e-01 2.193827e-01 4.761580e-01 8.473385e-01 3.244867e-01 4.761580e-01 8.136472e-01 4.227727e-01 4.761580e-01 7.627068e-01 5.176332e-01 4.761580e-01 7.062514e-01 5.992559e-01 4.761580e-01 6.316831e-01 6.796730e-01 4.761580e-01 5.555700e-01