ply
format ascii 1.0
element vertex 145
property float x
property float y
property float z
element face 244
property list uchar uint vertex_indices
element rand 1
property uint rightup
property uint leftup
property uint leftdown
property uint rightdown
end_header
0.000000 0.555570 0.831470
0.000000 0.707107 0.707107
0.000000 0.831470 0.555570
0.000000 0.923880 0.382683
0.000000 0.980785 0.195090
0.000000 1.000000 0.000000
0.000000 0.980785 -0.195090
0.000000 0.555570 -0.831470
0.108386 0.544895 0.831470
0.137950 0.693520 0.707107
0.162212 0.815493 0.555570
0.180240 0.906127 0.382683
0.191342 0.961940 0.195090
0.195090 0.980785 0.000000
0.191342 0.961940 -0.195090
0.180240 0.906127 -0.382683
0.162212 0.815493 -0.555570
0.137950 0.693520 -0.707107
0.108386 0.544895 -0.831470
0.212608 0.513280 0.831470
0.270598 0.653281 0.707107
0.318190 0.768178 0.555570
0.353553 0.853553 0.382683
0.375330 0.906127 0.195090
0.382684 0.923879 0.000000
0.375330 0.906127 -0.195090
0.353554 0.853553 -0.382683
0.318190 0.768178 -0.555570
0.270598 0.653281 -0.707107
0.212608 0.513280 -0.831470
0.392848 0.587938 0.707107
0.461940 0.691342 0.555570
0.513280 0.768178 0.382683
0.544895 0.815493 0.195090
0.555570 0.831469 0.000000
0.544895 0.815493 -0.195090
0.513280 0.768178 -0.382683
0.461940 0.691342 -0.555570
0.392848 0.587938 -0.707107
0.500000 0.500000 0.707107
0.587938 0.587938 0.555570
0.653282 0.653281 0.382683
0.693520 0.693520 0.195090
0.707107 0.707107 0.000000
0.693520 0.693520 -0.195090
0.653282 0.653281 -0.382683
0.587938 0.587938 -0.555570
0.500000 0.500000 -0.707107
0.768178 0.513280 0.382683
0.815493 0.544895 0.195090
0.831470 0.555570 0.000000
0.815493 0.544895 -0.195090
0.768178 0.513280 -0.382683
-0.768178 0.513280 0.382683
-0.815493 0.544895 0.195090
-0.831469 0.555570 0.000000
-0.815493 0.544895 -0.195090
-0.768178 0.513280 -0.382683
-0.500000 0.500000 0.707107
-0.587937 0.587937 0.555570
-0.653281 0.653281 0.382683
-0.693519 0.693519 0.195090
-0.707106 0.707106 0.000000
-0.693519 0.693519 -0.195090
-0.653281 0.653281 -0.382683
-0.587937 0.587937 -0.555570
-0.500000 0.500000 -0.707107
-0.392847 0.587937 0.707107
-0.461939 0.691341 0.555570
-0.513280 0.768177 0.382683
-0.544895 0.815492 0.195090
-0.555570 0.831469 0.000000
-0.544895 0.815492 -0.195090
-0.513280 0.768177 -0.382683
-0.461939 0.691341 -0.555570
-0.392847 0.587937 -0.707107
-0.212607 0.513280 0.831470
-0.270598 0.653281 0.707107
-0.318189 0.768177 0.555570
-0.353553 0.853553 0.382683
-0.375330 0.906127 0.195090
-0.382683 0.923879 0.000000
-0.375330 0.906127 -0.195090
-0.353553 0.853553 -0.382683
-0.318189 0.768177 -0.555570
-0.270598 0.653281 -0.707107
-0.212607 0.513279 -0.831470
-0.108386 0.544895 0.831470
-0.137950 0.693520 0.707107
-0.162211 0.815492 0.555570
-0.180240 0.906127 0.382683
-0.191341 0.961939 0.195090
-0.195090 0.980785 0.000000
-0.191341 0.961939 -0.195090
-0.180240 0.906127 -0.382683
-0.162211 0.815492 -0.555570
-0.137950 0.693520 -0.707107
-0.108386 0.544895 -0.831470
0.000000 0.923879 -0.382683
0.000000 0.831469 -0.555570
0.000000 0.707106 -0.707107
0.679673 0.476158 0.555570
0.712621 0.476158 0.507691
0.712621 0.476158 -0.507691
0.679673 0.476158 -0.555570
0.519567 0.476158 -0.707107
0.282058 0.476158 -0.831470
-0.318159 0.476158 -0.817436
-0.282057 0.476158 -0.831470
-0.476158 0.476158 -0.734778
0.476158 0.476158 -0.734778
0.318159 0.476158 -0.817436
0.000000 0.476158 -0.873916
0.788020 0.476158 0.382683
0.873917 0.476158 0.000000
0.852234 0.476158 0.195090
0.852234 0.476158 -0.195090
0.788020 0.476158 -0.382683
-0.519566 0.476158 -0.707107
0.197231 0.476158 -0.852947
0.094714 0.476158 -0.868930
-0.094714 0.476158 -0.868930
-0.197231 0.476158 -0.852946
0.318159 0.476158 0.817436
0.282058 0.476158 0.831470
0.094714 0.476158 0.868930
0.000000 0.476158 0.873916
-0.318159 0.476158 0.817436
-0.282057 0.476158 0.831470
-0.476158 0.476158 0.734778
-0.679672 0.476158 0.555570
-0.712621 0.476158 0.507690
-0.712621 0.476158 -0.507690
-0.679672 0.476158 -0.555570
0.197231 0.476158 0.852947
-0.094714 0.476158 0.868930
-0.197231 0.476158 0.852946
0.519567 0.476158 0.707107
0.476158 0.476158 0.734778
-0.519566 0.476158 0.707107
-0.788020 0.476158 0.382683
-0.852233 0.476158 0.195090
-0.873916 0.476158 0.000000
-0.788020 0.476158 -0.382683
-0.852233 0.476158 -0.195090
3 30 20 19
3 30 19 124
3 30 124 123
3 106 29 28
3 106 28 38
3 106 38 111
3 19 134 124
3 39 138 137
3 48 41 40
3 48 40 101
3 48 101 102
3 104 46 45
3 104 45 52
3 104 52 103
3 48 102 113
3 60 53 131
3 60 131 130
3 60 130 59
3 77 67 127
3 77 127 128
3 77 128 76
3 128 136 76
3 86 108 107
3 86 107 75
3 86 75 85
3 109 118 66
3 132 143 57
3 105 110 47
3 122 108 86
3 117 103 52
3 140 131 53
3 65 133 132
3 65 132 57
3 65 57 64
3 106 119 29
3 139 129 58
3 5 4 12
3 5 12 13
3 6 5 13
3 6 13 14
3 98 6 14
3 98 14 15
3 0 126 125
3 0 125 8
3 99 98 15
3 99 15 16
3 1 0 8
3 1 8 9
3 100 99 16
3 100 16 17
3 2 1 9
3 2 9 10
3 7 100 17
3 7 17 18
3 3 2 10
3 3 10 11
3 4 3 11
3 4 11 12
3 12 11 22
3 12 22 23
3 13 12 23
3 13 23 24
3 14 13 24
3 14 24 25
3 15 14 25
3 15 25 26
3 8 125 134
3 8 134 19
3 16 15 26
3 16 26 27
3 9 8 19
3 9 19 20
3 17 16 27
3 17 27 28
3 10 9 20
3 10 20 21
3 18 17 28
3 18 28 29
3 11 10 21
3 11 21 22
3 27 26 36
3 27 36 37
3 28 27 37
3 28 37 38
3 21 20 30
3 21 30 31
3 22 21 31
3 22 31 32
3 23 22 32
3 23 32 33
3 24 23 33
3 24 33 34
3 25 24 34
3 25 34 35
3 26 25 35
3 26 35 36
3 34 33 42
3 34 42 43
3 35 34 43
3 35 43 44
3 36 35 44
3 36 44 45
3 37 36 45
3 37 45 46
3 30 123 138
3 30 138 39
3 38 37 46
3 38 46 47
3 31 30 39
3 31 39 40
3 32 31 40
3 32 40 41
3 33 32 41
3 33 41 42
3 47 46 104
3 47 104 105
3 40 39 137
3 40 137 101
3 42 41 48
3 42 48 49
3 43 42 49
3 43 49 50
3 44 43 50
3 44 50 51
3 45 44 51
3 45 51 52
3 50 49 115
3 50 115 114
3 51 50 114
3 51 114 116
3 52 51 116
3 52 116 117
3 49 48 113
3 49 113 115
3 54 53 60
3 54 60 61
3 55 54 61
3 55 61 62
3 56 55 62
3 56 62 63
3 57 56 63
3 57 63 64
3 65 64 73
3 65 73 74
3 58 129 127
3 58 127 67
3 66 65 74
3 66 74 75
3 59 58 67
3 59 67 68
3 60 59 68
3 60 68 69
3 61 60 69
3 61 69 70
3 62 61 70
3 62 70 71
3 63 62 71
3 63 71 72
3 64 63 72
3 64 72 73
3 71 70 80
3 71 80 81
3 72 71 81
3 72 81 82
3 73 72 82
3 73 82 83
3 74 73 83
3 74 83 84
3 75 74 84
3 75 84 85
3 68 67 77
3 68 77 78
3 69 68 78
3 69 78 79
3 70 69 79
3 70 79 80
3 85 84 95
3 85 95 96
3 78 77 88
3 78 88 89
3 86 85 96
3 86 96 97
3 79 78 89
3 79 89 90
3 80 79 90
3 80 90 91
3 81 80 91
3 81 91 92
3 82 81 92
3 82 92 93
3 83 82 93
3 83 93 94
3 76 136 135
3 76 135 87
3 84 83 94
3 84 94 95
3 77 76 87
3 77 87 88
3 93 92 5
3 93 5 6
3 94 93 6
3 94 6 98
3 87 135 126
3 87 126 0
3 95 94 98
3 95 98 99
3 88 87 0
3 88 0 1
3 96 95 99
3 96 99 100
3 89 88 1
3 89 1 2
3 97 96 100
3 97 100 7
3 90 89 2
3 90 2 3
3 91 90 3
3 91 3 4
3 92 91 4
3 92 4 5
3 142 141 54
3 142 54 55
3 112 121 97
3 112 97 7
3 141 140 53
3 141 53 54
3 118 133 65
3 118 65 66
3 107 109 66
3 107 66 75
3 144 142 55
3 144 55 56
3 120 112 7
3 120 7 18
3 130 139 58
3 130 58 59
3 119 120 18
3 119 18 29
3 110 111 38
3 110 38 47
3 121 122 86
3 121 86 97
3 143 144 56
3 143 56 57
137 139 118 105
