ply
format ascii 1.0
element matrix 1
property uint u
property uint v
property list uchar float x
property list uchar float y
property list uchar float z
end_header
32 32 1024 -0.519566 -0.571213 -0.622860 -0.674507 -0.689238 -0.699867 -0.710495 -0.732079 -0.756401 -0.780723 -0.802520 -0.823234 -0.843947 -0.856430 -0.863424 -0.870419 -0.870419 -0.863424 -0.856430 -0.843947 -0.823234 -0.802520 -0.780723 -0.756401 -0.732079 -0.710495 -0.699867 -0.689238 -0.674507 -0.622860 -0.571213 -0.519566 -0.502763 -0.541031 -0.581891 -0.618768 -0.644004 -0.663115 -0.679592 -0.699187 -0.722519 -0.749927 -0.770424 -0.789428 -0.809019 -0.821831 -0.828657 -0.834530 -0.834380 -0.828864 -0.822085 -0.807502 -0.789090 -0.770167 -0.747390 -0.723061 -0.700628 -0.679969 -0.663037 -0.643345 -0.618697 -0.582131 -0.542966 -0.502763 -0.485960 -0.512799 -0.544429 -0.574740 -0.601280 -0.624858 -0.644884 -0.665737 -0.688604 -0.711695 -0.731377 -0.749143 -0.766760 -0.778249 -0.785493 -0.791516 -0.791013 -0.785569 -0.778728 -0.765484 -0.749230 -0.731597 -0.710740 -0.688201 -0.666085 -0.645295 -0.625091 -0.600910 -0.574335 -0.543791 -0.512889 -0.485960 -0.450674 -0.475175 -0.504660 -0.533553 -0.560560 -0.586199 -0.608870 -0.629341 -0.650946 -0.672418 -0.691728 -0.707634 -0.723706 -0.734600 -0.741232 -0.746734 -0.746233 -0.741244 -0.735137 -0.722997 -0.707824 -0.691851 -0.672616 -0.650876 -0.629529 -0.608630 -0.585714 -0.560375 -0.533449 -0.504095 -0.474865 -0.450674 -0.389513 -0.426452 -0.461143 -0.491326 -0.518303 -0.544097 -0.569039 -0.589198 -0.610075 -0.630963 -0.649037 -0.664804 -0.679421 -0.688534 -0.694381 -0.700010 -0.701174 -0.695089 -0.688811 -0.679652 -0.663804 -0.648699 -0.631156 -0.610067 -0.588915 -0.567758 -0.543222 -0.517791 -0.490944 -0.460658 -0.426597 -0.389513 -0.328352 -0.379603 -0.418617 -0.450148 -0.476255 -0.501261 -0.525258 -0.545518 -0.564991 -0.584429 -0.601599 -0.615317 -0.628994 -0.638424 -0.644026 -0.648434 -0.648726 -0.644050 -0.638753 -0.628696 -0.615260 -0.601471 -0.584832 -0.564844 -0.545270 -0.524849 -0.500847 -0.476012 -0.449811 -0.418430 -0.380158 -0.328352 -0.306513 -0.346153 -0.380492 -0.410944 -0.435285 -0.458609 -0.481036 -0.501253 -0.519228 -0.537618 -0.552798 -0.565760 -0.578107 -0.586924 -0.591668 -0.595468 -0.596122 -0.591862 -0.586768 -0.577851 -0.565664 -0.553435 -0.537187 -0.518974 -0.501043 -0.480690 -0.458546 -0.435130 -0.410364 -0.380848 -0.346848 -0.306513 -0.292538 -0.318328 -0.345371 -0.370770 -0.393530 -0.415001 -0.435436 -0.454390 -0.470749 -0.487952 -0.502568 -0.514146 -0.525009 -0.533511 -0.538310 -0.541362 -0.541104 -0.536931 -0.532633 -0.525424 -0.513696 -0.501760 -0.487644 -0.471257 -0.454962 -0.435578 -0.414637 -0.393474 -0.371614 -0.345388 -0.318624 -0.292538 -0.273848 -0.289741 -0.309827 -0.330717 -0.351179 -0.369612 -0.388003 -0.405638 -0.420088 -0.434909 -0.447642 -0.458265 -0.468027 -0.475713 -0.479266 -0.482193 -0.482590 -0.479169 -0.475141 -0.467883 -0.458105 -0.447693 -0.434724 -0.419956 -0.405054 -0.388121 -0.369542 -0.350925 -0.331411 -0.309862 -0.289780 -0.273848 -0.241012 -0.256423 -0.272789 -0.290385 -0.307770 -0.323845 -0.340033 -0.355614 -0.368352 -0.381267 -0.392485 -0.401909 -0.410415 -0.417401 -0.420378 -0.423016 -0.423278 -0.420279 -0.416972 -0.410332 -0.401875 -0.393187 -0.381129 -0.368140 -0.355152 -0.339949 -0.323825 -0.307877 -0.290644 -0.272809 -0.256468 -0.241012 -0.208176 -0.220615 -0.234032 -0.248636 -0.262986 -0.276876 -0.290492 -0.303335 -0.314715 -0.325794 -0.335702 -0.343942 -0.350967 -0.356750 -0.359055 -0.361318 -0.361607 -0.359526 -0.357207 -0.350952 -0.343395 -0.336216 -0.325793 -0.315064 -0.304208 -0.290361 -0.276676 -0.263094 -0.248494 -0.233950 -0.220535 -0.208176 -0.170775 -0.181964 -0.193084 -0.204949 -0.216914 -0.228120 -0.239133 -0.249595 -0.259312 -0.268203 -0.276263 -0.282931 -0.288798 -0.293758 -0.295792 -0.297731 -0.297806 -0.295796 -0.293792 -0.288688 -0.282907 -0.276743 -0.268190 -0.259284 -0.250034 -0.239086 -0.228063 -0.217051 -0.204785 -0.192963 -0.181873 -0.170775 -0.131091 -0.141579 -0.150925 -0.160385 -0.170161 -0.178704 -0.187320 -0.195501 -0.203246 -0.210162 -0.216519 -0.221753 -0.226364 -0.230202 -0.231888 -0.233405 -0.233295 -0.231705 -0.230373 -0.226324 -0.221785 -0.216631 -0.210039 -0.203099 -0.195664 -0.187238 -0.178688 -0.169756 -0.160261 -0.150811 -0.141707 -0.131091 -0.091659 -0.100678 -0.108010 -0.115044 -0.122238 -0.128285 -0.134417 -0.140331 -0.145841 -0.150878 -0.155599 -0.159290 -0.162420 -0.165040 -0.166395 -0.167579 -0.167660 -0.166556 -0.165368 -0.162383 -0.159116 -0.155412 -0.150881 -0.145956 -0.140550 -0.134365 -0.128178 -0.121901 -0.114866 -0.107933 -0.100659 -0.091659 -0.054995 -0.060268 -0.064800 -0.069070 -0.073407 -0.077115 -0.080801 -0.084397 -0.087661 -0.090615 -0.093446 -0.095630 -0.097576 -0.099147 -0.099964 -0.100578 -0.100645 -0.099964 -0.099297 -0.097563 -0.095607 -0.093311 -0.090557 -0.087587 -0.084484 -0.080712 -0.077091 -0.073185 -0.068965 -0.064753 -0.060241 -0.054995 -0.018332 -0.020105 -0.021593 -0.023015 -0.024459 -0.025694 -0.026927 -0.028141 -0.029212 -0.030185 -0.031165 -0.031910 -0.032558 -0.033074 -0.033332 -0.033518 -0.033569 -0.033348 -0.033118 -0.032527 -0.031844 -0.031051 -0.030110 -0.029115 -0.028074 -0.026846 -0.025692 -0.024323 -0.022922 -0.021527 -0.020019 -0.018332 0.018332 0.020117 0.021693 0.023157 0.024632 0.025987 0.027161 0.028405 0.029493 0.030477 0.031452 0.032142 0.032785 0.033317 0.033634 0.033836 0.033874 0.033625 0.033437 0.032848 0.032230 0.031482 0.030567 0.029570 0.028484 0.027236 0.025981 0.024723 0.023254 0.021769 0.020221 0.018332 0.054995 0.060315 0.064888 0.069187 0.073398 0.077407 0.081038 0.084779 0.087867 0.090854 0.093685 0.095889 0.097840 0.099361 0.100237 0.100815 0.100933 0.100280 0.099644 0.097896 0.095978 0.093676 0.090961 0.088006 0.084732 0.081131 0.077418 0.073706 0.069318 0.064987 0.060390 0.054995 0.091659 0.100750 0.108047 0.115067 0.122051 0.128693 0.134742 0.140999 0.146004 0.151040 0.155818 0.159557 0.162739 0.165180 0.166627 0.167688 0.167978 0.166874 0.165815 0.162746 0.159476 0.155651 0.151225 0.146325 0.140820 0.134833 0.128591 0.122343 0.115257 0.108182 0.100847 0.091659 0.131091 0.141743 0.150963 0.160413 0.170364 0.178852 0.187411 0.196088 0.203427 0.210358 0.216698 0.221859 0.226539 0.230190 0.232174 0.233535 0.233651 0.232048 0.230700 0.226623 0.222152 0.216857 0.210520 0.203468 0.195931 0.187670 0.179070 0.170078 0.160686 0.151113 0.141955 0.131091 0.170775 0.181984 0.193063 0.204943 0.216879 0.228229 0.239267 0.249918 0.259489 0.268393 0.276522 0.283135 0.289019 0.293677 0.296086 0.297809 0.298137 0.296111 0.294084 0.289027 0.283283 0.276619 0.268575 0.259605 0.250496 0.239544 0.228537 0.216962 0.205335 0.193290 0.182166 0.170775 0.208176 0.220571 0.233870 0.248490 0.263722 0.276949 0.290386 0.303391 0.314905 0.326192 0.336192 0.343755 0.350746 0.356717 0.359979 0.362114 0.362330 0.359523 0.356733 0.350830 0.343817 0.336036 0.326384 0.315430 0.304575 0.290597 0.277276 0.262978 0.248964 0.233411 0.220427 0.208176 0.241013 0.256440 0.272757 0.290134 0.307919 0.323877 0.340035 0.355794 0.368425 0.381167 0.393342 0.402105 0.410546 0.417639 0.420407 0.422971 0.423595 0.420645 0.417562 0.410702 0.402282 0.393161 0.381538 0.368629 0.355861 0.339953 0.324234 0.306010 0.288232 0.270664 0.255645 0.241013 0.273849 0.289726 0.309724 0.331152 0.350764 0.369533 0.388198 0.405211 0.420080 0.434889 0.448545 0.458324 0.467996 0.475989 0.479477 0.482442 0.482909 0.479514 0.476052 0.468187 0.458536 0.448450 0.435198 0.420403 0.405534 0.387358 0.369435 0.347172 0.326780 0.308131 0.288677 0.273849 0.292539 0.318637 0.345240 0.370715 0.393394 0.414493 0.435534 0.454550 0.471401 0.488057 0.501943 0.513378 0.525119 0.534468 0.537873 0.540746 0.541067 0.537622 0.534403 0.525583 0.514659 0.503603 0.488495 0.471559 0.454598 0.434335 0.413072 0.390976 0.368813 0.344432 0.318351 0.292539 0.306514 0.346818 0.380767 0.409931 0.435164 0.458494 0.480854 0.500987 0.518944 0.537053 0.553061 0.565796 0.578159 0.586861 0.592013 0.596296 0.596344 0.592050 0.587294 0.577338 0.565431 0.552832 0.537388 0.519310 0.501426 0.481077 0.458740 0.435268 0.410256 0.380616 0.346641 0.306514 0.328352 0.380137 0.418706 0.449654 0.476021 0.500941 0.524953 0.545352 0.564870 0.584876 0.601725 0.615350 0.629027 0.638555 0.644171 0.648899 0.648755 0.644177 0.639038 0.628359 0.615396 0.601262 0.585103 0.565110 0.545632 0.525240 0.501297 0.476216 0.449980 0.418853 0.380217 0.328352 0.389513 0.426609 0.461461 0.490972 0.517927 0.543537 0.567841 0.588770 0.609967 0.631211 0.648294 0.663600 0.679445 0.688795 0.694467 0.700734 0.701382 0.695344 0.688851 0.677234 0.663697 0.649095 0.631974 0.609968 0.589092 0.569064 0.543946 0.518303 0.491274 0.462347 0.426911 0.389513 0.450674 0.474774 0.504071 0.532691 0.559918 0.585297 0.608555 0.629567 0.651137 0.673269 0.691839 0.707902 0.723526 0.735197 0.741312 0.746764 0.746211 0.741242 0.735105 0.722936 0.707741 0.691203 0.672699 0.651245 0.629553 0.608426 0.585327 0.560746 0.533645 0.505473 0.475495 0.450674 0.485960 0.513385 0.544035 0.574302 0.600830 0.625064 0.645339 0.666167 0.688676 0.712499 0.731545 0.749246 0.766852 0.778798 0.785519 0.791465 0.791316 0.785551 0.778696 0.765602 0.749147 0.731501 0.711295 0.688685 0.666279 0.645485 0.624791 0.601340 0.575040 0.545297 0.513072 0.485960 0.502764 0.542848 0.582130 0.618435 0.643169 0.663053 0.679992 0.700895 0.724320 0.748924 0.770907 0.789227 0.807751 0.821769 0.829028 0.834845 0.834310 0.828161 0.821838 0.809322 0.790217 0.770425 0.749429 0.724712 0.701076 0.680097 0.663128 0.643694 0.619050 0.582650 0.541296 0.502764 0.519567 0.571214 0.622861 0.674508 0.689239 0.699867 0.710495 0.732079 0.756401 0.780723 0.802520 0.823234 0.843948 0.856431 0.863425 0.870420 0.870420 0.863425 0.856431 0.843948 0.823234 0.802520 0.780723 0.756401 0.732079 0.710495 0.699867 0.689239 0.674508 0.622861 0.571214 0.519567 1024 0.476158 0.476158 0.476158 0.476158 0.476158 0.476158 0.476158 0.476158 0.476158 0.476158 0.476158 0.476158 0.476158 0.476158 0.476158 0.476158 0.476158 0.476158 0.476158 0.476158 0.476158 0.476158 0.476158 0.476158 0.476158 0.476158 0.476158 0.476158 0.476158 0.476158 0.476158 0.476158 0.476158 0.479514 0.487975 0.494634 0.501255 0.506729 0.510429 0.513981 0.519264 0.527333 0.530403 0.533162 0.537516 0.539680 0.540001 0.541296 0.541180 0.540118 0.539854 0.536311 0.532720 0.529886 0.524959 0.519467 0.515192 0.510902 0.506944 0.501243 0.495451 0.489746 0.483940 0.476158 0.476158 0.488008 0.501823 0.513358 0.524681 0.535704 0.544276 0.552737 0.562253 0.571660 0.578443 0.584271 0.591035 0.594557 0.596520 0.599247 0.598836 0.596540 0.594866 0.589868 0.584150 0.578397 0.570655 0.561847 0.553203 0.544970 0.536411 0.525185 0.514259 0.503258 0.491388 0.476158 0.476158 0.496366 0.514998 0.531616 0.547659 0.563791 0.577849 0.589761 0.602411 0.614839 0.625415 0.633333 0.642146 0.647500 0.650422 0.653760 0.653342 0.650398 0.647882 0.641397 0.633281 0.625320 0.614906 0.602441 0.590243 0.578208 0.564144 0.548423 0.532718 0.516057 0.498027 0.476158 0.476158 0.500955 0.525772 0.547584 0.567732 0.588052 0.608300 0.623710 0.639801 0.655928 0.669253 0.680486 0.691143 0.697045 0.700644 0.705127 0.706296 0.701290 0.697204 0.691244 0.679367 0.668877 0.656262 0.640049 0.623788 0.607512 0.587721 0.567854 0.547967 0.526201 0.502044 0.476158 0.476158 0.505116 0.535320 0.562743 0.586482 0.610551 0.634354 0.654031 0.672812 0.691607 0.707818 0.720169 0.732945 0.741450 0.746217 0.750404 0.750732 0.746175 0.741765 0.732619 0.720192 0.707771 0.692312 0.672882 0.654030 0.634239 0.610470 0.586607 0.562769 0.535658 0.506276 0.476158 0.476158 0.509576 0.543846 0.577536 0.604885 0.632299 0.659291 0.683624 0.704931 0.726798 0.744469 0.759295 0.773539 0.783568 0.788660 0.793028 0.793881 0.788849 0.783352 0.773343 0.759321 0.745483 0.726507 0.704852 0.683483 0.658990 0.632381 0.604761 0.576636 0.544517 0.510708 0.476158 0.476158 0.513635 0.551788 0.588125 0.620801 0.652043 0.682013 0.709738 0.733388 0.758226 0.779119 0.795444 0.810770 0.822772 0.829304 0.833582 0.833239 0.827256 0.821571 0.811770 0.795090 0.778331 0.758276 0.734508 0.710760 0.682256 0.651462 0.620628 0.589196 0.551815 0.514112 0.476158 0.476158 0.517768 0.558452 0.597666 0.635039 0.668416 0.701513 0.732988 0.758587 0.784601 0.806718 0.825012 0.841791 0.854976 0.860762 0.865796 0.866612 0.860791 0.854126 0.841821 0.825048 0.807195 0.784654 0.758617 0.732164 0.701853 0.668391 0.634659 0.598848 0.558476 0.517858 0.476158 0.476158 0.521961 0.565178 0.607679 0.647836 0.684298 0.720241 0.754317 0.782115 0.809857 0.833725 0.853624 0.871418 0.885978 0.892097 0.897623 0.898269 0.892081 0.885265 0.871472 0.853768 0.835437 0.809844 0.781934 0.753606 0.720234 0.684404 0.648251 0.608271 0.565272 0.522075 0.476158 0.476158 0.525666 0.571597 0.616727 0.658948 0.698575 0.736468 0.771449 0.802175 0.831718 0.857816 0.879321 0.897492 0.912321 0.918238 0.924091 0.924896 0.919533 0.913515 0.897491 0.877941 0.859142 0.831768 0.803132 0.773653 0.736082 0.698150 0.659540 0.616750 0.571688 0.525723 0.476158 0.476158 0.528649 0.576414 0.623234 0.668226 0.709191 0.748290 0.784663 0.818012 0.848153 0.875111 0.897181 0.916430 0.932563 0.939326 0.945609 0.945870 0.939297 0.932672 0.916076 0.897147 0.876589 0.848132 0.817971 0.786159 0.748258 0.709150 0.668880 0.623117 0.576388 0.528669 0.476158 0.476158 0.531093 0.580822 0.629224 0.677099 0.718852 0.759467 0.797293 0.832452 0.863576 0.891717 0.914696 0.934696 0.951155 0.958616 0.965073 0.964678 0.957936 0.951724 0.934487 0.914811 0.892178 0.863224 0.832040 0.798194 0.759488 0.719069 0.676010 0.629187 0.580731 0.531759 0.476158 0.476158 0.533077 0.584472 0.634189 0.683780 0.726017 0.767436 0.806660 0.842596 0.875011 0.904864 0.928028 0.947481 0.963538 0.971932 0.979180 0.979672 0.972916 0.965396 0.947121 0.926871 0.903739 0.875183 0.843393 0.808359 0.767748 0.725969 0.682711 0.633717 0.584223 0.533031 0.476158 0.476158 0.533667 0.586147 0.636266 0.686500 0.730217 0.772261 0.812507 0.848628 0.880722 0.910992 0.934131 0.954585 0.970821 0.979491 0.985769 0.986490 0.979462 0.972339 0.954574 0.934122 0.909945 0.880661 0.848436 0.814396 0.772303 0.730530 0.685551 0.636253 0.586153 0.533662 0.476158 0.476158 0.534296 0.587643 0.638121 0.688626 0.733678 0.775910 0.816913 0.853149 0.885154 0.916158 0.940025 0.960685 0.976778 0.985525 0.991260 0.992401 0.985985 0.978764 0.960693 0.939598 0.914793 0.885087 0.852741 0.818599 0.775962 0.733791 0.687556 0.638226 0.587510 0.534364 0.476158 0.476158 0.534344 0.587445 0.638146 0.687977 0.733648 0.775479 0.817111 0.853357 0.885773 0.916713 0.939500 0.959811 0.976213 0.985985 0.991987 0.993055 0.985465 0.977926 0.960018 0.939807 0.915407 0.885692 0.852987 0.816874 0.775504 0.733353 0.688058 0.638082 0.587565 0.534324 0.476158 0.476158 0.533789 0.586035 0.636214 0.684738 0.730460 0.772241 0.814178 0.848349 0.880664 0.910766 0.934093 0.954549 0.970329 0.979463 0.985318 0.986470 0.979435 0.972422 0.954317 0.934079 0.909671 0.880608 0.848537 0.812521 0.772236 0.730063 0.686398 0.636236 0.586147 0.533705 0.476158 0.476158 0.533131 0.584045 0.633527 0.681611 0.726823 0.768089 0.809446 0.842186 0.874490 0.904585 0.927968 0.947741 0.962716 0.971579 0.978049 0.979876 0.972895 0.965933 0.947122 0.926783 0.902854 0.874928 0.843380 0.807463 0.767846 0.725805 0.682516 0.633694 0.584205 0.533219 0.476158 0.476158 0.531634 0.580807 0.628968 0.677157 0.718672 0.759133 0.798889 0.832359 0.863491 0.891521 0.914192 0.934409 0.950003 0.958531 0.964305 0.964826 0.957961 0.951607 0.934176 0.914686 0.891415 0.863388 0.831770 0.797403 0.759331 0.718819 0.675494 0.629116 0.580719 0.531966 0.476158 0.476158 0.528832 0.576418 0.623159 0.667642 0.708950 0.748166 0.785104 0.817905 0.848052 0.875182 0.897085 0.916355 0.931413 0.939232 0.944821 0.945863 0.939213 0.932407 0.915936 0.897038 0.874891 0.847956 0.817514 0.786042 0.748109 0.709035 0.667004 0.623126 0.576328 0.528827 0.476158 0.476158 0.525766 0.571340 0.616388 0.660499 0.698338 0.735684 0.771079 0.802142 0.832203 0.858458 0.878183 0.896240 0.911508 0.919888 0.925320 0.925804 0.918529 0.911298 0.896077 0.877912 0.857581 0.832126 0.802783 0.773174 0.735262 0.698216 0.657743 0.616245 0.569840 0.524997 0.476158 0.476158 0.522118 0.565278 0.607279 0.648151 0.684298 0.720122 0.754555 0.782086 0.809444 0.835184 0.853648 0.871210 0.885848 0.891612 0.896880 0.898107 0.891939 0.885516 0.871185 0.853555 0.834295 0.809556 0.781743 0.753728 0.718935 0.683937 0.643656 0.603119 0.561243 0.519910 0.476158 0.476158 0.517885 0.558493 0.598823 0.634496 0.668358 0.701887 0.732240 0.758553 0.784571 0.808244 0.824931 0.841357 0.854890 0.860634 0.865668 0.866451 0.860615 0.854862 0.841386 0.824835 0.807530 0.784420 0.758372 0.731965 0.699473 0.667062 0.627758 0.590731 0.557029 0.515909 0.476158 0.476158 0.514284 0.551948 0.588331 0.620773 0.651351 0.682230 0.710092 0.734576 0.758725 0.778334 0.794210 0.810744 0.823767 0.828150 0.832083 0.832550 0.827725 0.823685 0.811267 0.795847 0.780324 0.758598 0.734095 0.709453 0.679633 0.648345 0.616614 0.586379 0.551513 0.514300 0.476158 0.476158 0.510735 0.544625 0.576387 0.605032 0.632449 0.659299 0.683434 0.704756 0.726218 0.744818 0.759229 0.773452 0.783184 0.788711 0.793687 0.793699 0.788698 0.783702 0.772306 0.758644 0.744306 0.726214 0.704730 0.683517 0.659156 0.632482 0.605205 0.577226 0.544577 0.510565 0.476158 0.476158 0.506271 0.536126 0.562771 0.586745 0.610659 0.634425 0.654132 0.672866 0.692276 0.707904 0.720123 0.732854 0.741356 0.746087 0.750633 0.750433 0.746080 0.741944 0.732074 0.720124 0.707230 0.692168 0.672736 0.653968 0.634194 0.610640 0.586664 0.562988 0.535888 0.506056 0.476158 0.476158 0.501985 0.527183 0.548056 0.568022 0.588059 0.607574 0.623586 0.639881 0.656270 0.668369 0.679029 0.690909 0.697047 0.700502 0.705684 0.706330 0.701448 0.697217 0.688760 0.679219 0.669218 0.656909 0.639557 0.623463 0.608196 0.587929 0.567805 0.547596 0.527177 0.501479 0.476158 0.476158 0.497662 0.515850 0.531821 0.547804 0.563540 0.578014 0.590192 0.602598 0.615434 0.625260 0.633284 0.641753 0.647817 0.650330 0.653698 0.653266 0.650400 0.647912 0.641358 0.633295 0.624852 0.615024 0.602589 0.589864 0.577417 0.563022 0.547797 0.531432 0.515266 0.496460 0.476158 0.476158 0.491619 0.503323 0.514085 0.524970 0.536239 0.544897 0.553183 0.562144 0.571956 0.578264 0.584094 0.590875 0.594811 0.596411 0.599146 0.599066 0.596565 0.594923 0.590078 0.584238 0.578479 0.571243 0.562202 0.553122 0.544713 0.535577 0.524523 0.512958 0.500923 0.487324 0.476158 0.476158 0.483808 0.489687 0.495159 0.501020 0.506874 0.510856 0.515345 0.520368 0.526026 0.530382 0.532768 0.536393 0.539502 0.540183 0.541469 0.541125 0.539662 0.539736 0.537882 0.533831 0.530378 0.526837 0.520827 0.515453 0.510788 0.506672 0.500866 0.494481 0.487713 0.477960 0.476158 0.476158 0.476158 0.476158 0.476158 0.476158 0.476158 0.476158 0.476158 0.476158 0.476158 0.476158 0.476158 0.476158 0.476158 0.476158 0.476158 0.476158 0.476158 0.476158 0.476158 0.476158 0.476158 0.476158 0.476158 0.476158 0.476158 0.476158 0.476158 0.476158 0.476158 0.476158 0.476158 1024 -0.707107 -0.658224 -0.609341 -0.560458 -0.541669 -0.526224 -0.510779 -0.475430 -0.435105 -0.394780 -0.340323 -0.279809 -0.219296 -0.157331 -0.094398 -0.031466 0.031466 0.094398 0.157331 0.219296 0.279809 0.340323 0.394780 0.435105 0.475430 0.510779 0.526224 0.541669 0.560458 0.609341 0.658224 0.707107 -0.717818 -0.676713 -0.636998 -0.598240 -0.569643 -0.542950 -0.513335 -0.476216 -0.435170 -0.392444 -0.339274 -0.281347 -0.221860 -0.159603 -0.095996 -0.032113 0.032132 0.096020 0.159725 0.221397 0.281195 0.339052 0.391221 0.435760 0.477261 0.513703 0.543028 0.569069 0.598253 0.637336 0.678915 0.717818 -0.728530 -0.699045 -0.663263 -0.625978 -0.592075 -0.559369 -0.522961 -0.482903 -0.439750 -0.392650 -0.339474 -0.282239 -0.222913 -0.160549 -0.096747 -0.032401 0.032447 0.096817 0.160697 0.222531 0.282271 0.339512 0.392293 0.439687 0.483313 0.523461 0.559827 0.591853 0.625662 0.662608 0.699129 0.728530 -0.748110 -0.721858 -0.686979 -0.649376 -0.612329 -0.575819 -0.535915 -0.492005 -0.445901 -0.396489 -0.342651 -0.284679 -0.224886 -0.162130 -0.097741 -0.032744 0.032790 0.097802 0.162251 0.224700 0.284768 0.342680 0.396812 0.446074 0.492378 0.536034 0.575636 0.612345 0.649404 0.686373 0.721514 0.748110 -0.780107 -0.743770 -0.707808 -0.668807 -0.628783 -0.589062 -0.548303 -0.501436 -0.453109 -0.402199 -0.346958 -0.288464 -0.227739 -0.163965 -0.098789 -0.033074 0.033345 0.099014 0.164142 0.228043 0.288180 0.346910 0.402561 0.453290 0.501419 0.547349 0.588359 0.628342 0.668410 0.707196 0.744205 0.780107 -0.812103 -0.764595 -0.726172 -0.686444 -0.643696 -0.601493 -0.558304 -0.510112 -0.459596 -0.407081 -0.350932 -0.291081 -0.229732 -0.165637 -0.099823 -0.033364 0.033577 0.099993 0.165874 0.229828 0.291247 0.351045 0.407595 0.459669 0.510089 0.558110 0.601206 0.643497 0.686007 0.725941 0.765801 0.812103 -0.821963 -0.778696 -0.740192 -0.702332 -0.658039 -0.613892 -0.568666 -0.519898 -0.467498 -0.413789 -0.355899 -0.295142 -0.232721 -0.167776 -0.101037 -0.033755 0.033968 0.101222 0.167877 0.232838 0.295276 0.356410 0.413662 0.467505 0.519889 0.568438 0.613928 0.657816 0.701253 0.740892 0.780146 0.821963 -0.827396 -0.788700 -0.751763 -0.712672 -0.669699 -0.624947 -0.578240 -0.528537 -0.474634 -0.419991 -0.361477 -0.299463 -0.235853 -0.170089 -0.102487 -0.034216 0.034417 0.102483 0.170099 0.236367 0.299450 0.361150 0.420085 0.475451 0.529440 0.578605 0.624494 0.669624 0.714011 0.751590 0.789281 0.827396 -0.833548 -0.798055 -0.760824 -0.721570 -0.679939 -0.633614 -0.586247 -0.536415 -0.481168 -0.424905 -0.365198 -0.302553 -0.238220 -0.171826 -0.103397 -0.034508 0.034783 0.103609 0.171898 0.238429 0.302697 0.365476 0.424981 0.481236 0.535915 0.586680 0.633683 0.679655 0.723054 0.760793 0.798122 0.833548 -0.841862 -0.807835 -0.770109 -0.731235 -0.689153 -0.642587 -0.594703 -0.544153 -0.487936 -0.430568 -0.369920 -0.306426 -0.241157 -0.174008 -0.104677 -0.034969 0.035193 0.104883 0.174101 0.241362 0.306600 0.370709 0.430576 0.487849 0.543660 0.594781 0.642778 0.689680 0.732049 0.770254 0.808023 0.841862 -0.850175 -0.817035 -0.779202 -0.740131 -0.697164 -0.650854 -0.602096 -0.549959 -0.493690 -0.435594 -0.374454 -0.310244 -0.243932 -0.175882 -0.105714 -0.035280 0.035604 0.106133 0.176395 0.244158 0.309929 0.375131 0.435704 0.494378 0.551575 0.601843 0.650606 0.697923 0.740267 0.779349 0.817142 0.850175 -0.857071 -0.824944 -0.786321 -0.746429 -0.703961 -0.656695 -0.606969 -0.554115 -0.498049 -0.438974 -0.377162 -0.312294 -0.245555 -0.177170 -0.106524 -0.035541 0.035866 0.106797 0.177414 0.245626 0.312427 0.377890 0.439018 0.498138 0.555215 0.606968 0.656764 0.704785 0.746360 0.786316 0.824946 0.857071 -0.863258 -0.831758 -0.792936 -0.752475 -0.711011 -0.662516 -0.612290 -0.558934 -0.502666 -0.442902 -0.380557 -0.315109 -0.247772 -0.178708 -0.107454 -0.035859 0.036160 0.107660 0.178961 0.247798 0.315206 0.380813 0.442774 0.502516 0.559613 0.612294 0.662692 0.709918 0.752534 0.792868 0.832675 0.863258 -0.869091 -0.837582 -0.798481 -0.757633 -0.716330 -0.666830 -0.615954 -0.562467 -0.505683 -0.445747 -0.383378 -0.317286 -0.249185 -0.179537 -0.107996 -0.036028 0.036464 0.108427 0.180064 0.249160 0.316969 0.383035 0.445984 0.506341 0.563740 0.616167 0.666696 0.715218 0.757158 0.798174 0.837373 0.869091 -0.871021 -0.839892 -0.801138 -0.759661 -0.718085 -0.669159 -0.618018 -0.564585 -0.507315 -0.446727 -0.384218 -0.317838 -0.249777 -0.179942 -0.108259 -0.036069 0.036483 0.108561 0.180382 0.249820 0.317877 0.383880 0.446852 0.507398 0.565972 0.617978 0.669313 0.717048 0.759681 0.801137 0.839795 0.871021 -0.872951 -0.841670 -0.803321 -0.761659 -0.719761 -0.671546 -0.620038 -0.566693 -0.509047 -0.448033 -0.385521 -0.319097 -0.250780 -0.180595 -0.108638 -0.036172 0.036600 0.108942 0.181034 0.250763 0.318960 0.385049 0.448158 0.508967 0.567884 0.619985 0.671509 0.718570 0.761783 0.803146 0.841745 0.872951 -0.872951 -0.841756 -0.803072 -0.761714 -0.719081 -0.671491 -0.619684 -0.566833 -0.509186 -0.448358 -0.385752 -0.318919 -0.250534 -0.180459 -0.108656 -0.036175 0.036636 0.108890 0.180909 0.250618 0.319080 0.385357 0.448496 0.509094 0.566699 0.619669 0.671169 0.719119 0.761611 0.803195 0.841623 0.872951 -0.871021 -0.839907 -0.800978 -0.759694 -0.716286 -0.669361 -0.618014 -0.565838 -0.507300 -0.446791 -0.384201 -0.317881 -0.249812 -0.179871 -0.108271 -0.036072 0.036438 0.108517 0.180363 0.249749 0.317896 0.383821 0.446877 0.507423 0.564682 0.618010 0.668995 0.717979 0.759647 0.801123 0.839873 0.871021 -0.869091 -0.837379 -0.797909 -0.756982 -0.714174 -0.667638 -0.616572 -0.564570 -0.505646 -0.445616 -0.383431 -0.317398 -0.249343 -0.179421 -0.107997 -0.036039 0.036338 0.108328 0.180075 0.249136 0.316976 0.382752 0.445943 0.506325 0.563149 0.616334 0.666632 0.715058 0.757130 0.798150 0.837647 0.869091 -0.863259 -0.832343 -0.792906 -0.752305 -0.711349 -0.662554 -0.612156 -0.560197 -0.502738 -0.442948 -0.380597 -0.315036 -0.247758 -0.178476 -0.107444 -0.035857 0.036083 0.107587 0.178895 0.247730 0.315252 0.380652 0.443046 0.502498 0.559234 0.612326 0.662557 0.709427 0.752488 0.792859 0.832847 0.863259 -0.857072 -0.825038 -0.786322 -0.746516 -0.703702 -0.656780 -0.607069 -0.554582 -0.498146 -0.439053 -0.377341 -0.312404 -0.245665 -0.177025 -0.106572 -0.035587 0.035763 0.106684 0.177269 0.245561 0.312411 0.377284 0.439126 0.498110 0.555431 0.607036 0.656731 0.702884 0.746527 0.786340 0.825206 0.857072 -0.850176 -0.817093 -0.778891 -0.739900 -0.699305 -0.651054 -0.601716 -0.549808 -0.493810 -0.436024 -0.374933 -0.310040 -0.243731 -0.175807 -0.105993 -0.035471 0.035504 0.105882 0.175824 0.243713 0.309948 0.374586 0.436057 0.494478 0.551647 0.601413 0.650806 0.696127 0.739887 0.777098 0.816221 0.850176 -0.841862 -0.808003 -0.770271 -0.730900 -0.689817 -0.642853 -0.594792 -0.544367 -0.487994 -0.430442 -0.370698 -0.306594 -0.241222 -0.174074 -0.104733 -0.035014 0.035136 0.104814 0.174080 0.241268 0.306585 0.370367 0.430613 0.488029 0.544142 0.593949 0.642511 0.684727 0.726008 0.765220 0.805610 0.841862 -0.833548 -0.798142 -0.760821 -0.723033 -0.679568 -0.633724 -0.586746 -0.536007 -0.481232 -0.424974 -0.366019 -0.302700 -0.238264 -0.171995 -0.103542 -0.034627 0.034697 0.103542 0.171957 0.238248 0.302648 0.365705 0.424951 0.481248 0.535962 0.584702 0.632460 0.671804 0.713363 0.758205 0.795543 0.833548 -0.827396 -0.789522 -0.751789 -0.712949 -0.669734 -0.624378 -0.578555 -0.528907 -0.475505 -0.420373 -0.361214 -0.299130 -0.236025 -0.170549 -0.102582 -0.034285 0.034353 0.102528 0.170418 0.236102 0.299698 0.362109 0.420281 0.475221 0.528431 0.576161 0.621248 0.664852 0.709625 0.750772 0.789349 0.827396 -0.821963 -0.780198 -0.741038 -0.700915 -0.658059 -0.613959 -0.568660 -0.519807 -0.467445 -0.413531 -0.356138 -0.295237 -0.232839 -0.167843 -0.101163 -0.033861 0.033969 0.101206 0.167899 0.232400 0.294971 0.355900 0.413503 0.467427 0.519838 0.568428 0.613765 0.657810 0.701341 0.740825 0.779936 0.821963 -0.812103 -0.765816 -0.726607 -0.685968 -0.643631 -0.601388 -0.558228 -0.510142 -0.459664 -0.407597 -0.351160 -0.291240 -0.229898 -0.165751 -0.099917 -0.033467 0.033514 0.099940 0.165816 0.229505 0.291139 0.350759 0.407484 0.459565 0.510069 0.558127 0.601382 0.643556 0.686297 0.726679 0.765835 0.812103 -0.780107 -0.744236 -0.708479 -0.668563 -0.628583 -0.588776 -0.547440 -0.501280 -0.453184 -0.402567 -0.346719 -0.288076 -0.227939 -0.164055 -0.098823 -0.033169 0.033292 0.098994 0.164065 0.227014 0.288035 0.347049 0.402823 0.452926 0.501268 0.548250 0.588813 0.628714 0.668721 0.709458 0.744401 0.780107 -0.748110 -0.721498 -0.686328 -0.648508 -0.611823 -0.575185 -0.535975 -0.492387 -0.446199 -0.397142 -0.342770 -0.284844 -0.224901 -0.162206 -0.097717 -0.032726 0.032783 0.097817 0.162317 0.224681 0.284753 0.342457 0.396735 0.446098 0.492114 0.535506 0.574863 0.612486 0.649337 0.687682 0.722056 0.748110 -0.728530 -0.699628 -0.662830 -0.625591 -0.591758 -0.559823 -0.523487 -0.483337 -0.439924 -0.393266 -0.339653 -0.282348 -0.223017 -0.160635 -0.096729 -0.032411 0.032455 0.096809 0.160677 0.222595 0.282300 0.339587 0.392547 0.439858 0.483247 0.523328 0.559182 0.592021 0.626018 0.663517 0.699068 0.728530 -0.717818 -0.678766 -0.637317 -0.597972 -0.568898 -0.543091 -0.513726 -0.477420 -0.436501 -0.392040 -0.339514 -0.281305 -0.221494 -0.159520 -0.095966 -0.032114 0.032148 0.095956 0.159623 0.222022 0.281694 0.339315 0.392355 0.436742 0.477462 0.513655 0.542904 0.569259 0.598414 0.637594 0.676915 0.717818 -0.707107 -0.658224 -0.609341 -0.560458 -0.541670 -0.526225 -0.510780 -0.475431 -0.435106 -0.394781 -0.340323 -0.279809 -0.219296 -0.157331 -0.094398 -0.031466 0.031466 0.094398 0.157331 0.219296 0.279809 0.340323 0.394781 0.435106 0.475431 0.510780 0.526225 0.541670 0.560458 0.609341 0.658224 0.707107
